<svg width="21" height="20" viewBox="0 0 21 20" fill="none" xmlns="http://www.w3.org/2000/svg">
  <path d="M17.1545 4.2696C16.7535 3.86718 16.277 3.54788 15.7523 3.33002C15.2276 3.11215 14.665 3 14.0969 3C13.5288 3 12.9663 3.11215 12.4416 3.33002C11.9169 3.54788 11.4404 3.86718 11.0393 4.2696L10.4238 4.89311L9.80831 4.2696C9.40729 3.86718 8.93077 3.54788 8.40608 3.33002C7.88139 3.11215 7.31885 3 6.75073 3C6.18261 3 5.62007 3.11215 5.09538 3.33002C4.57069 3.54788 4.09417 3.86718 3.69314 4.2696C1.99848 5.96426 1.89457 8.826 4.02888 11.0003L10.4238 17.3952L16.8188 11.0003C18.9531 8.826 18.8492 5.96426 17.1545 4.2696Z" stroke="currentColor" stroke-width="1.5" stroke-linecap="round" stroke-linejoin="round"/>
  <path d="M10.4237 4.89307L7.92167 7.40308C7.60535 7.72199 7.42786 8.15296 7.42786 8.60214C7.42786 9.05131 7.60535 9.48229 7.92167 9.80119V9.80119C8.24057 10.1175 8.67155 10.295 9.12072 10.295C9.56989 10.295 10.0009 10.1175 10.3198 9.80119L12.1263 8.03458C12.5753 7.59036 13.1814 7.3412 13.813 7.3412C14.4446 7.3412 15.0507 7.59036 15.4997 8.03458L17.4182 9.95307" stroke="currentColor" stroke-width="1.5" stroke-linecap="round" stroke-linejoin="round"/>
  <path d="M15.22 12.5992L13.6212 11.0005" stroke="currentColor" stroke-width="1.5" stroke-linecap="round" stroke-linejoin="round"/>
  <path d="M12.8219 14.9972L11.2231 13.3984" stroke="currentColor" stroke-width="1.5" stroke-linecap="round" stroke-linejoin="round"/>
</svg>
