<svg width="16" height="16" viewBox="0 0 16 16" fill="none" xmlns="http://www.w3.org/2000/svg">
<path d="M12.209 2.76373V2.26373H11.709H3.56354H3.06354V2.76373V13.2365V13.7365H3.56354H7.05445H7.55445V13.2365V11.7001H7.71808V13.2365V13.7365H8.21808H11.709H12.209V13.2365V2.76373ZM10.0454 4.42737V4.59101H9.88172V4.42737H10.0454ZM7.71808 4.42737V4.59101H7.55445V4.42737H7.71808ZM5.39081 4.42737V4.59101H5.22718V4.42737H5.39081ZM10.0454 6.75464V6.91828H9.88172V6.75464H10.0454ZM7.71808 6.75464V6.91828H7.55445V6.75464H7.71808ZM5.39081 6.75464V6.91828H5.22718V6.75464H5.39081ZM10.0454 9.08192V9.24555H9.88172V9.08192H10.0454ZM7.71808 9.08192V9.24555H7.55445V9.08192H7.71808ZM5.39081 9.08192V9.24555H5.22718V9.08192H5.39081ZM10.0454 11.4092V11.5728H9.88172V11.4092H10.0454ZM5.39081 11.4092V11.5728H5.22718V11.4092H5.39081ZM2.8999 2.1001H12.3726V13.9001H2.8999V2.1001Z" fill='currentColor' stroke="currentColor"/>
</svg>
