<svg width='21' height='20' viewBox="0 0 18 18" fill="none" xmlns="http://www.w3.org/2000/svg">
  <path d="M14.1667 14C13.2417 14 12.5 14.7416 12.5 15.6666C12.5 16.1087 12.6756 16.5326 12.9882 16.8451C13.3008 17.1577 13.7247 17.3333 14.1667 17.3333C14.6087 17.3333 15.0327 17.1577 15.3452 16.8451C15.6578 16.5326 15.8334 16.1087 15.8334 15.6666C15.8334 14.7416 15.0834 14 14.1667 14ZM0.833374 0.666626V2.33329H2.50004L5.50004 8.65829L4.36671 10.7C4.24171 10.9333 4.16671 11.2083 4.16671 11.5C4.16671 11.942 4.3423 12.3659 4.65486 12.6785C4.96742 12.991 5.39135 13.1666 5.83337 13.1666H15.8334V11.5H6.18337C6.12812 11.5 6.07513 11.478 6.03606 11.4389C5.99699 11.3999 5.97504 11.3469 5.97504 11.2916C5.97504 11.25 5.98337 11.2166 6.00004 11.1916L6.75004 9.83329H12.9584C13.5834 9.83329 14.1334 9.48329 14.4167 8.97496L17.4 3.58329C17.4584 3.44996 17.5 3.30829 17.5 3.16663C17.5 2.94561 17.4122 2.73365 17.256 2.57737C17.0997 2.42109 16.8877 2.33329 16.6667 2.33329H4.34171L3.55837 0.666626M5.83337 14C4.90837 14 4.16671 14.7416 4.16671 15.6666C4.16671 16.1087 4.3423 16.5326 4.65486 16.8451C4.96742 17.1577 5.39135 17.3333 5.83337 17.3333C6.2754 17.3333 6.69932 17.1577 7.01188 16.8451C7.32445 16.5326 7.50004 16.1087 7.50004 15.6666C7.50004 14.7416 6.75004 14 5.83337 14Z" fill="currentColor"/>
</svg>
