<svg width="22" height="20" viewBox="0 0 22 20" fill="none" xmlns="http://www.w3.org/2000/svg">
  <g clip-path="url(#clip0_5716_28228)">
    <path d="M15.0175 15C15.4828 15 15.929 15.1756 16.258 15.4881C16.5871 15.8007 16.7719 16.2246 16.7719 16.6666C16.7719 17.1087 16.5871 17.5326 16.258 17.8451C15.929 18.1577 15.4828 18.3333 15.0175 18.3333C14.0438 18.3333 13.2631 17.5833 13.2631 16.6666C13.2631 15.7416 14.0438 15 15.0175 15ZM0.982422 1.66663H3.85084L4.6754 3.33329H17.6491C17.8817 3.33329 18.1049 3.42109 18.2694 3.57737C18.4339 3.73365 18.5263 3.94561 18.5263 4.16663C18.5263 4.30829 18.4824 4.44996 18.421 4.58329L15.2807 9.97496C14.9824 10.4833 14.4035 10.8333 13.7456 10.8333H7.21049L6.42102 12.1916L6.3947 12.2916C6.3947 12.3469 6.41781 12.3999 6.45893 12.4389C6.50006 12.478 6.55584 12.5 6.614 12.5H16.7719V14.1666H6.24558C5.27189 14.1666 4.49119 13.4166 4.49119 12.5C4.49119 12.2083 4.57014 11.9333 4.70172 11.7L5.8947 9.65829L2.73681 3.33329H0.982422V1.66663ZM6.24558 15C6.71087 15 7.15711 15.1756 7.48612 15.4881C7.81513 15.8007 7.99996 16.2246 7.99996 16.6666C7.99996 17.1087 7.81513 17.5326 7.48612 17.8451C7.15711 18.1577 6.71087 18.3333 6.24558 18.3333C5.27189 18.3333 4.49119 17.5833 4.49119 16.6666C4.49119 15.7416 5.27189 15 6.24558 15ZM14.1403 9.16663L16.5789 4.99996H5.49119L7.56137 9.16663H14.1403Z" fill="currentColor"/>
  </g>
  <defs>
    <clipPath id="clip0_5716_28228">
      <rect width="21.0526" height="20" fill="currentColor" transform="translate(0.105225)"/>
    </clipPath>
  </defs>
</svg>
