<svg width="12" height="14" viewBox="0 0 12 14" fill="none" xmlns="http://www.w3.org/2000/svg">
<mask id="path-1-inside-1_874_2025" fill="white">
<path d="M5.19999 0.600098C4.31999 0.600098 3.59999 1.3201 3.59999 2.2001H1.99999C1.11999 2.2001 0.399994 2.9201 0.399994 3.8001H11.6C11.6 2.9201 10.88 2.2001 9.99999 2.2001H8.39999C8.39999 1.3201 7.67999 0.600098 6.79999 0.600098H5.19999ZM1.99999 5.4001V13.0961C1.99999 13.2721 2.12799 13.4001 2.30399 13.4001H9.71199C9.88799 13.4001 10.016 13.2721 10.016 13.0961V5.4001H8.41599V11.0001C8.41599 11.4481 8.06399 11.8001 7.61599 11.8001C7.16799 11.8001 6.81599 11.4481 6.81599 11.0001V5.4001H5.21599V11.0001C5.21599 11.4481 4.86399 11.8001 4.41599 11.8001C3.96799 11.8001 3.61599 11.4481 3.61599 11.0001V5.4001H2.01599H1.99999Z"/>
</mask>
<path d="M5.19999 0.600098C4.31999 0.600098 3.59999 1.3201 3.59999 2.2001H1.99999C1.11999 2.2001 0.399994 2.9201 0.399994 3.8001H11.6C11.6 2.9201 10.88 2.2001 9.99999 2.2001H8.39999C8.39999 1.3201 7.67999 0.600098 6.79999 0.600098H5.19999ZM1.99999 5.4001V13.0961C1.99999 13.2721 2.12799 13.4001 2.30399 13.4001H9.71199C9.88799 13.4001 10.016 13.2721 10.016 13.0961V5.4001H8.41599V11.0001C8.41599 11.4481 8.06399 11.8001 7.61599 11.8001C7.16799 11.8001 6.81599 11.4481 6.81599 11.0001V5.4001H5.21599V11.0001C5.21599 11.4481 4.86399 11.8001 4.41599 11.8001C3.96799 11.8001 3.61599 11.4481 3.61599 11.0001V5.4001H2.01599H1.99999Z" fill="#E6605E"/>
<path d="M3.59999 2.2001V14.0887H15.4886V2.2001H3.59999ZM0.399994 3.8001H-11.4886V15.6887H0.399994V3.8001ZM11.6 3.8001V15.6887H23.4886V3.8001H11.6ZM8.39999 2.2001H-3.48858V14.0887H8.39999V2.2001ZM1.99999 5.4001V-6.48847H-9.88858V5.4001H1.99999ZM10.016 5.4001H21.9046V-6.48847H10.016V5.4001ZM8.41599 5.4001V-6.48847H-3.47258V5.4001H8.41599ZM6.81599 5.4001H18.7046V-6.48847H6.81599V5.4001ZM5.21599 5.4001V-6.48847H-6.67258V5.4001H5.21599ZM3.61599 5.4001H15.5046V-6.48847H3.61599V5.4001ZM5.19999 -11.2885C-2.24588 -11.2885 -8.28858 -5.24578 -8.28858 2.2001H15.4886C15.4886 7.88597 10.8859 12.4887 5.19999 12.4887V-11.2885ZM3.59999 -9.68847H1.99999V14.0887H3.59999V-9.68847ZM1.99999 -9.68847C-5.44588 -9.68847 -11.4886 -3.64578 -11.4886 3.8001H12.2886C12.2886 9.48597 7.68587 14.0887 1.99999 14.0887V-9.68847ZM0.399994 15.6887H11.6V-8.08847H0.399994V15.6887ZM23.4886 3.8001C23.4886 -3.64578 17.4459 -9.68847 9.99999 -9.68847V14.0887C4.31412 14.0887 -0.288578 9.48597 -0.288578 3.8001H23.4886ZM9.99999 -9.68847H8.39999V14.0887H9.99999V-9.68847ZM20.2886 2.2001C20.2886 -5.24578 14.2459 -11.2885 6.79999 -11.2885V12.4887C1.11412 12.4887 -3.48858 7.88597 -3.48858 2.2001H20.2886ZM6.79999 -11.2885H5.19999V12.4887H6.79999V-11.2885ZM-9.88858 5.4001V13.0961H13.8886V5.4001H-9.88858ZM-9.88858 13.0961C-9.88858 19.838 -4.43788 25.2887 2.30399 25.2887V1.51153C5.17745 1.51153 8.18503 2.60015 10.4925 4.90761C12.7999 7.21507 13.8886 10.2226 13.8886 13.0961H-9.88858ZM2.30399 25.2887H9.71199V1.51153H2.30399V25.2887ZM9.71199 25.2887C16.4539 25.2887 21.9046 19.838 21.9046 13.0961H-1.87258C-1.87258 10.2226 -0.783953 7.21507 1.5235 4.90761C3.83096 2.60015 6.83854 1.51153 9.71199 1.51153V25.2887ZM21.9046 13.0961V5.4001H-1.87258V13.0961H21.9046ZM10.016 -6.48847H8.41599V17.2887H10.016V-6.48847ZM-3.47258 5.4001V11.0001H20.3046V5.4001H-3.47258ZM-3.47258 11.0001C-3.47258 4.88222 1.49812 -0.0884739 7.61599 -0.0884739V23.6887C14.6299 23.6887 20.3046 18.014 20.3046 11.0001H-3.47258ZM7.61599 -0.0884739C13.7339 -0.0884739 18.7046 4.88222 18.7046 11.0001H-5.07258C-5.07258 18.014 0.602117 23.6887 7.61599 23.6887V-0.0884739ZM18.7046 11.0001V5.4001H-5.07258V11.0001H18.7046ZM6.81599 -6.48847H5.21599V17.2887H6.81599V-6.48847ZM-6.67258 5.4001V11.0001H17.1046V5.4001H-6.67258ZM-6.67258 11.0001C-6.67258 4.88222 -1.70188 -0.0884739 4.41599 -0.0884739V23.6887C11.4299 23.6887 17.1046 18.014 17.1046 11.0001H-6.67258ZM4.41599 -0.0884739C10.5339 -0.0884739 15.5046 4.88222 15.5046 11.0001H-8.27258C-8.27258 18.014 -2.59788 23.6887 4.41599 23.6887V-0.0884739ZM15.5046 11.0001V5.4001H-8.27258V11.0001H15.5046ZM3.61599 -6.48847H2.01599V17.2887H3.61599V-6.48847ZM2.01599 -6.48847H1.99999V17.2887H2.01599V-6.48847Z" fill="#E6605E" mask="url(#path-1-inside-1_874_2025)"/>
</svg>
