<svg width="14" height="14" viewBox="0 0 14 14" fill="none" xmlns="http://www.w3.org/2000/svg">
<mask id="path-1-inside-1_874_1313" fill="white">
<path d="M10.2 0.600098L8.60001 2.2001L11.8 5.4001L13.4 3.8001L10.2 0.600098ZM7.00001 3.8001L0.600006 10.2001V13.4001H3.80001L10.2 7.0001L7.00001 3.8001Z"/>
</mask>
<path d="M10.2 0.600098L8.60001 2.2001L11.8 5.4001L13.4 3.8001L10.2 0.600098ZM7.00001 3.8001L0.600006 10.2001V13.4001H3.80001L10.2 7.0001L7.00001 3.8001Z" fill="#24A9E1"/>
<path d="M10.2 0.600098L13.8778 -3.07774L10.2 -6.75558L6.52217 -3.07774L10.2 0.600098ZM8.60001 2.2001L4.92217 -1.47774L1.24433 2.2001L4.92217 5.87794L8.60001 2.2001ZM11.8 5.4001L8.12217 9.07794L11.8 12.7558L15.4778 9.07794L11.8 5.4001ZM13.4 3.8001L17.0778 7.47794L20.7557 3.8001L17.0778 0.122259L13.4 3.8001ZM7.00001 3.8001L10.6778 0.122259L7.00001 -3.55558L3.32217 0.122259L7.00001 3.8001ZM0.600006 10.2001L-3.07783 6.52226L-4.60124 8.04567V10.2001H0.600006ZM0.600006 13.4001H-4.60124V18.6013H0.600006V13.4001ZM3.80001 13.4001V18.6013H5.95443L7.47785 17.0779L3.80001 13.4001ZM10.2 7.0001L13.8778 10.6779L17.5557 7.0001L13.8778 3.32226L10.2 7.0001ZM6.52217 -3.07774L4.92217 -1.47774L12.2778 5.87794L13.8778 4.27794L6.52217 -3.07774ZM4.92217 5.87794L8.12217 9.07794L15.4778 1.72226L12.2778 -1.47774L4.92217 5.87794ZM15.4778 9.07794L17.0778 7.47794L9.72217 0.122259L8.12217 1.72226L15.4778 9.07794ZM17.0778 0.122259L13.8778 -3.07774L6.52217 4.27794L9.72217 7.47794L17.0778 0.122259ZM3.32217 0.122259L-3.07783 6.52226L4.27785 13.8779L10.6778 7.47794L3.32217 0.122259ZM-4.60124 10.2001V13.4001H5.80126V10.2001H-4.60124ZM0.600006 18.6013H3.80001V8.19885H0.600006V18.6013ZM7.47785 17.0779L13.8778 10.6779L6.52217 3.32226L0.122167 9.72226L7.47785 17.0779ZM13.8778 3.32226L10.6778 0.122259L3.32217 7.47794L6.52217 10.6779L13.8778 3.32226Z" fill="#24A9E1" mask="url(#path-1-inside-1_874_1313)"/>
</svg>
