<svg width="35" height="35" viewBox="0 0 35 35" fill="none"
  xmlns="http://www.w3.org/2000/svg">
  <path fill-rule="evenodd" clip-rule="evenodd" d="M28.0071 10.3886L21.9157 4.26L21.2657 4H6.92857L6 4.92857V15.1429H7.85714V5.85714H19V12.3571L19.9286 13.2857H26.4286V15.1429H28.2857V11.0571L28.0071 10.3886ZM20.8571 11.4286V5.85714L26.4286 11.4286H20.8571ZM6.92857 17L6 17.9286V29.0714L6.92857 30H27.3571L28.2857 29.0714V17.9286L27.3571 17H6.92857ZM26.4286 26.2857V28.1429H7.85714V18.8571H26.4286V26.2857ZM11.5714 24.4286H10.9771V26.2857H9.71429V20.7143H11.6829C13.0757 20.7143 13.7814 21.3829 13.7814 22.5714C13.785 22.824 13.7337 23.0744 13.6311 23.3053C13.5285 23.5361 13.3771 23.742 13.1871 23.9086C12.7269 24.2673 12.1545 24.4515 11.5714 24.4286ZM11.46 21.7357H10.9771V23.4629H11.46C12.1286 23.4629 12.4629 23.1657 12.4629 22.59C12.4629 22.0143 12.1286 21.7357 11.46 21.7357ZM19 25.5057C19.2743 25.2356 19.4887 24.9108 19.6295 24.5525C19.7703 24.1942 19.8342 23.8103 19.8171 23.4257C19.8171 21.5686 18.8329 20.7143 16.8457 20.7143H14.8771V26.2857H16.8457C17.2386 26.3047 17.6313 26.2456 18.0011 26.1117C18.3709 25.9778 18.7104 25.7718 19 25.5057ZM16.1214 25.2643V21.7357H16.7343C16.9712 21.7207 17.2086 21.7541 17.4321 21.8339C17.6556 21.9137 17.8605 22.0383 18.0343 22.2C18.1917 22.3653 18.314 22.5608 18.3938 22.7746C18.4736 22.9885 18.5092 23.2163 18.4986 23.4443C18.5264 23.9338 18.3595 24.4145 18.0343 24.7814C17.8643 24.9441 17.6631 25.0708 17.4429 25.1537C17.2227 25.2367 16.988 25.2743 16.7529 25.2643H16.1214ZM24.3857 24.1314H22.5843V26.2857H21.3214V20.7143H24.5529V21.7357H22.5843V23.11H24.3857V24.1314Z" fill="currentColor"/>
</svg>
