<svg width="35" height="35" viewBox="0 0 35 35" fill="none"
  xmlns="http://www.w3.org/2000/svg">
  <path d="M28.921 6C29.207 6 29.4627 6.10833 29.688 6.325C29.896 6.533 30 6.78433 30 7.079V27.671C30 27.9657 29.896 28.217 29.688 28.425C29.4627 28.6417 29.207 28.75 28.921 28.75H11.579C11.293 28.75 11.0373 28.6417 10.812 28.425C10.604 28.217 10.5 27.9657 10.5 27.671V23.875H5.079C4.793 23.875 4.53733 23.771 4.312 23.563C4.104 23.3377 4 23.082 4 22.796V11.954C4 11.668 4.104 11.4123 4.312 11.187C4.53733 10.979 4.793 10.875 5.079 10.875H10.5V7.079C10.5 6.78433 10.604 6.533 10.812 6.325C11.0373 6.10833 11.293 6 11.579 6M10.5 18.753L12.034 21.639H14.361L11.8 17.453L14.309 13.332H12.086L10.669 15.945L10.617 16.023L10.578 16.114C10.3527 15.6547 10.11 15.191 9.85 14.723C9.63333 14.2637 9.40367 13.8 9.161 13.332H6.808L9.265 17.479L6.6 21.639H8.914M19.444 27.125V23.875H12.125V27.125M19.444 22.25V18.194H17V22.25M19.444 16.569V12.5H17V16.569M19.444 10.875V7.625H12.125V10.875M28.375 27.125V23.875H21.069V27.125M28.375 22.25V18.194H21.069V22.25M28.375 16.569V12.5H21.069V16.569M28.375 10.875V7.625H21.069V10.875H28.375Z" fill="currentColor"/>
</svg>
