<svg width="16" height="16" viewBox="0 0 16 16" fill="none" xmlns="http://www.w3.org/2000/svg">
<mask id="path-1-inside-1_1492_13913" fill="white">
<path d="M10.5454 1.59998H3.56354C2.92354 1.59998 2.3999 2.12361 2.3999 2.76361V10.9091H3.56354V2.76361H10.5454V1.59998ZM12.2908 3.92725H5.89081C5.25081 3.92725 4.72717 4.45088 4.72717 5.09088V13.2363C4.72717 13.8763 5.25081 14.4 5.89081 14.4H12.2908C12.9308 14.4 13.4544 13.8763 13.4544 13.2363V5.09088C13.4544 4.45088 12.9308 3.92725 12.2908 3.92725ZM12.2908 13.2363H5.89081V5.09088H12.2908V13.2363Z"/>
</mask>
<path d="M10.5454 1.59998H3.56354C2.92354 1.59998 2.3999 2.12361 2.3999 2.76361V10.9091H3.56354V2.76361H10.5454V1.59998ZM12.2908 3.92725H5.89081C5.25081 3.92725 4.72717 4.45088 4.72717 5.09088V13.2363C4.72717 13.8763 5.25081 14.4 5.89081 14.4H12.2908C12.9308 14.4 13.4544 13.8763 13.4544 13.2363V5.09088C13.4544 4.45088 12.9308 3.92725 12.2908 3.92725ZM12.2908 13.2363H5.89081V5.09088H12.2908V13.2363Z" fill="#24A9E1"/>
<path d="M10.5454 1.59998H13.212V-1.06669H10.5454V1.59998ZM2.3999 10.9091H-0.266764V13.5757H2.3999V10.9091ZM3.56354 10.9091V13.5757H6.23021V10.9091H3.56354ZM3.56354 2.76361V0.0969452H0.896872V2.76361H3.56354ZM10.5454 2.76361V5.43028H13.212V2.76361H10.5454ZM12.2908 13.2363V15.903H14.9575V13.2363H12.2908ZM5.89081 13.2363H3.22414V15.903H5.89081V13.2363ZM5.89081 5.09088V2.42422H3.22414V5.09088H5.89081ZM12.2908 5.09088H14.9575V2.42422H12.2908V5.09088ZM10.5454 -1.06669H3.56354V4.26664H10.5454V-1.06669ZM3.56354 -1.06669C1.45078 -1.06669 -0.266764 0.650853 -0.266764 2.76361H5.06657C5.06657 3.59637 4.3963 4.26664 3.56354 4.26664V-1.06669ZM-0.266764 2.76361V10.9091H5.06657V2.76361H-0.266764ZM2.3999 13.5757H3.56354V8.2424H2.3999V13.5757ZM6.23021 10.9091V2.76361H0.896872V10.9091H6.23021ZM3.56354 5.43028H10.5454V0.0969452H3.56354V5.43028ZM13.212 2.76361V1.59998H7.87869V2.76361H13.212ZM12.2908 1.26058H5.89081V6.59391H12.2908V1.26058ZM5.89081 1.26058C3.77805 1.26058 2.06051 2.97813 2.06051 5.09088H7.39384C7.39384 5.92364 6.72357 6.59391 5.89081 6.59391V1.26058ZM2.06051 5.09088V13.2363H7.39384V5.09088H2.06051ZM2.06051 13.2363C2.06051 15.3491 3.77805 17.0666 5.89081 17.0666V11.7333C6.72357 11.7333 7.39384 12.4036 7.39384 13.2363H2.06051ZM5.89081 17.0666H12.2908V11.7333H5.89081V17.0666ZM12.2908 17.0666C14.4036 17.0666 16.1211 15.3491 16.1211 13.2363H10.7878C10.7878 12.4036 11.4581 11.7333 12.2908 11.7333V17.0666ZM16.1211 13.2363V5.09088H10.7878V13.2363H16.1211ZM16.1211 5.09088C16.1211 2.97813 14.4036 1.26058 12.2908 1.26058V6.59391C11.4581 6.59391 10.7878 5.92364 10.7878 5.09088H16.1211ZM12.2908 10.5697H5.89081V15.903H12.2908V10.5697ZM8.55748 13.2363V5.09088H3.22414V13.2363H8.55748ZM5.89081 7.75755H12.2908V2.42422H5.89081V7.75755ZM9.62414 5.09088V13.2363H14.9575V5.09088H9.62414Z" fill="#24A9E1" mask="url(#path-1-inside-1_1492_13913)"/>
</svg>
