<?xml version="1.0" encoding="UTF-8"?>
<svg width="150px" height="150px" viewBox="0 0 15 15" version="1.1" xmlns="http://www.w3.org/2000/svg" xmlns:xlink="http://www.w3.org/1999/xlink">
    <title>D1167405-F3DB-41E1-8B11-DF9FCB33E042</title>
    <g id="Homepage" stroke="none" stroke-width="1" fill="none" fill-rule="evenodd">
        <g id="languages" transform="translate(-990.000000, -72.000000)">
            <g id="Group-17" transform="translate(979.000000, 55.000000)">
                <g id="Group-22" transform="translate(11.000000, 17.000000)">
                    <circle id="Oval" fill="#FFFFFF" cx="7.5" cy="7.5" r="7.5"></circle>
                    <path d="M3.42822036,8.43914709 C2.44850652,8.43914709 1.47117062,8.43914709 0.491456779,8.43914709 C0.282197511,8.43914709 0.317866705,8.44865887 0.296465189,8.265557 C0.237016533,7.74716471 0.244150372,7.23115035 0.294087242,6.71275806 C0.305976973,6.59148279 0.339268221,6.5558136 0.462921424,6.5558136 C2.42472706,6.56056949 4.38653269,6.55819155 6.34833832,6.55819155 C6.38876341,6.55819155 6.42681055,6.5558136 6.46723563,6.55819155 C6.53144018,6.56056949 6.56235348,6.53441208 6.55997554,6.46782959 C6.55759759,6.4274045 6.55997554,6.38935736 6.55997554,6.34893227 C6.55997554,4.39188245 6.55997554,2.43245468 6.55997554,0.475404858 C6.55997554,0.311326561 6.55997554,0.316082454 6.72405383,0.297058884 C7.24957994,0.237610226 7.77510606,0.242366118 8.30063217,0.297058884 C8.41477359,0.308948615 8.44330895,0.34461781 8.44330895,0.454003341 C8.440931,2.42056495 8.440931,4.38474861 8.440931,6.35131022 C8.440931,6.3917353 8.44330895,6.42978244 8.440931,6.47020753 C8.43617511,6.53916798 8.4718443,6.56294744 8.5336709,6.55819155 C8.57409599,6.5558136 8.61214313,6.55819155 8.65256821,6.55819155 C10.60724,6.55819155 12.5595339,6.55819155 14.5142056,6.55819155 C14.6877957,6.55819155 14.6830398,6.55819155 14.7020634,6.72702573 C14.7615121,7.24541803 14.7591341,7.76381033 14.7020634,8.27982468 C14.6830398,8.43914709 14.6877957,8.43914709 14.5308513,8.43914709 C12.5690456,8.43914709 10.60724,8.43914709 8.64543437,8.43914709 C8.60500929,8.43914709 8.56220626,8.4296353 8.52891501,8.44390298 C8.49562376,8.45817066 8.45995457,8.4914619 8.44568689,8.5271311 C8.43141921,8.56042235 8.440931,8.60560333 8.440931,8.64365047 C8.440931,10.6054562 8.440931,12.5672619 8.440931,14.5290676 C8.440931,14.68839 8.440931,14.6836341 8.2816086,14.7026577 C7.75608249,14.7621064 7.23055637,14.7573505 6.70265231,14.7050356 C6.58137705,14.6931459 6.55521964,14.6550988 6.55521964,14.5409573 C6.55759759,12.5791516 6.55759759,10.6173459 6.55759759,8.6555402 C6.55759759,8.61511511 6.55521964,8.57706797 6.55759759,8.53664288 C6.56235348,8.46292655 6.52668429,8.43914709 6.45772385,8.44152503 C6.31980297,8.44390298 6.17950414,8.44152503 6.04158326,8.44152503 C5.17125494,8.43914709 4.29854868,8.43914709 3.42822036,8.43914709 Z" id="Path" fill="#E53935" fill-rule="nonzero"></path>
                    <path d="M10.6779661,9.40677966 C11.9351017,9.40677966 13.2120738,9.40677966 14.4915254,9.40677966 C14.4344956,9.95861253 13.6707919,11.4958613 13.2343898,11.9491525 C12.3789425,11.1016949 11.5259747,10.2517737 10.6779661,9.40677966 Z" id="Path" fill="#3F51B5" fill-rule="nonzero"></path>
                    <path d="M5.59322034,0.508474576 C5.59322034,1.79280839 5.59322034,3.06481654 5.59322034,4.3220339 C4.75313191,3.4764936 3.90567428,2.62848816 3.05084746,1.7706222 C3.80496193,1.18885103 4.65241955,0.769778576 5.59322034,0.508474576 Z" id="Path" fill="#3F51B5" fill-rule="nonzero"></path>
                    <path d="M9.40677966,0.508474576 C10.3512305,0.753785458 11.1970442,1.14720857 11.9491525,1.68642966 C11.0959411,2.4871614 10.2427296,3.28326464 9.40677966,4.06779661 C9.40677966,2.91066981 9.40677966,1.71651495 9.40677966,0.508474576 Z" id="Path" fill="#3F51B5" fill-rule="nonzero"></path>
                    <path d="M3.05084746,13.2293778 C3.90402563,12.3715118 4.74984881,11.5235064 5.59322034,10.6779661 C5.59322034,11.9351835 5.59322034,13.2047265 5.59322034,14.4915254 C4.65913734,14.2326866 3.81576582,13.8136141 3.05084746,13.2293778 Z" id="Path" fill="#3F51B5" fill-rule="nonzero"></path>
                    <path d="M9.40677966,14.4915254 C9.40677966,13.1980375 9.40677966,11.9218951 9.40677966,10.6779661 C10.2427296,11.5179899 11.0934752,12.3728814 11.9491525,13.2327287 C11.204442,13.8051343 10.3561624,14.2239072 9.40677966,14.4915254 Z" id="Path" fill="#3F51B5" fill-rule="nonzero"></path>
                    <path d="M0.508474576,5.59322034 C0.754425121,4.65032088 1.14655382,3.80368603 1.68718096,3.05084746 C2.49000066,3.9073556 3.28817979,4.7589271 4.06779661,5.59322034 C2.91693368,5.59322034 1.72198528,5.59322034 0.508474576,5.59322034 Z" id="Path" fill="#3F51B5" fill-rule="nonzero"></path>
                    <path d="M14.4915254,5.59322034 C13.2047265,5.59322034 11.9351835,5.59322034 10.6779661,5.59322034 C11.5210413,4.75148878 12.3690467,3.90730319 13.2293778,3.05084746 C13.8136141,3.80668804 14.2302214,4.65578169 14.4915254,5.59322034 Z" id="Path" fill="#3F51B5" fill-rule="nonzero"></path>
                    <path d="M0.508474576,9.40677966 C1.79610586,9.40677966 3.06647006,9.40677966 4.3220339,9.40677966 C3.4784134,10.2468681 2.62985945,11.0918693 1.76897187,11.9491525 C1.18929112,11.1950381 0.769947596,10.3475804 0.508474576,9.40677966 Z" id="Path" fill="#3F51B5" fill-rule="nonzero"></path>
                    <path d="M2.03389831,2.75099605 C2.18875345,2.57221926 2.32014569,2.42283044 2.43980649,2.28813559 C3.49329073,3.3877353 4.54208239,4.48243702 5.59322034,5.57958773 C5.5087539,5.57958773 5.40551713,5.57958773 5.30228037,5.57958773 C5.12630862,5.57713873 4.93156654,5.62366968 4.78140398,5.55754676 C4.63124141,5.49142383 4.52331207,5.31509604 4.39895869,5.18774819 C3.64579958,4.40406911 2.89498676,3.61794103 2.14182765,2.83426195 C2.11601846,2.80487399 2.07847782,2.78528201 2.03389831,2.75099605 Z" id="Path" fill="#E53935" fill-rule="nonzero"></path>
                    <path d="M12.9661017,12.2411934 C12.8069736,12.4225978 12.6759269,12.5721339 12.5565808,12.7118644 C11.5035269,11.6087291 10.4574934,10.5129481 9.40677966,9.41226425 C9.57994852,9.41226425 9.76247785,9.42697273 9.94032695,9.40981284 C10.1485976,9.39020155 10.2913449,9.46619531 10.4364323,9.62308566 C11.2344131,10.4737255 12.0417544,11.3145597 12.8490957,12.155394 C12.8795173,12.1848109 12.9192993,12.2068736 12.9661017,12.2411934 Z" id="Path" fill="#E53935" fill-rule="nonzero"></path>
                    <path d="M9.40739571,5.59322034 C9.40739571,5.3493014 9.40493152,5.07933286 9.40985989,4.80936432 C9.40985989,4.78331473 9.4369659,4.75252884 9.45914354,4.73121554 C10.3782836,3.84552928 11.2998878,2.96221117 12.2190279,2.07652492 C12.233813,2.06231605 12.2510623,2.05284347 12.2757041,2.03389831 C12.4284834,2.16651443 12.5787986,2.29913055 12.7118644,2.41753781 C11.6079107,3.48083494 10.5039569,4.53939578 9.40739571,5.59322034 Z" id="Path" fill="#E53935" fill-rule="nonzero"></path>
                    <path d="M5.59260704,9.40677966 C5.59260704,9.66606802 5.59506025,9.92771355 5.59015383,10.1893591 C5.59015383,10.2200022 5.56807495,10.2553597 5.54354287,10.2789314 C4.62604301,11.162869 3.70608993,12.0468066 2.78613686,12.928387 C2.77387082,12.9401729 2.76160478,12.9472444 2.73461949,12.9661017 C2.58252058,12.8341003 2.43042167,12.6997418 2.28813559,12.5771692 C3.3969857,11.516444 4.49356976,10.4651476 5.59260704,9.40677966 Z" id="Path" fill="#E53935" fill-rule="nonzero"></path>
                </g>
            </g>
        </g>
    </g>
</svg>