<svg width="20" height="22" viewBox="0 0 20 22" fill="none" xmlns="http://www.w3.org/2000/svg">
<path d="M10.8819 10.5037L11.521 10.5002C11.9264 10.0756 12.4159 9.57072 13.0556 9.60819C13.6978 9.57364 14.1848 10.0697 14.5904 10.5002C14.8618 10.5107 15.3857 10.4704 15.6397 10.5652V6.4978H4.36035V12.9919H9.03269L9.35062 12.6706L9.35746 12.0315C9.36118 11.628 9.52288 11.2421 9.80786 10.9565C10.0928 10.6708 10.4784 10.5083 10.8819 10.5037ZM6.58203 9.07835C5.91004 9.06825 5.90628 8.06385 6.58203 8.05295H13.418C14.0891 8.06485 14.0931 9.06566 13.418 9.07835H6.58203Z" fill="#222222"/>
<path d="M17.6904 3.93433H2.30957C2.17407 3.93395 2.04396 3.98737 1.94783 4.08286C1.85169 4.17835 1.7974 4.30811 1.79688 4.44361V15.0427C1.79727 15.1786 1.85141 15.3088 1.94748 15.4048C2.04354 15.5009 2.17372 15.555 2.30957 15.5554H9.16946C8.71516 15.1538 8.37914 14.6275 8.4756 14.0173H3.84766C3.7118 14.0169 3.58163 13.9628 3.48556 13.8667C3.3895 13.7707 3.33536 13.6405 3.33496 13.5046V5.98511C3.33487 5.91775 3.34806 5.85104 3.37379 5.7888C3.39953 5.72655 3.43729 5.67 3.48491 5.62237C3.53254 5.57474 3.5891 5.53698 3.65134 5.51125C3.71359 5.48552 3.7803 5.47232 3.84766 5.47241H16.1523C16.2882 5.4728 16.4184 5.52694 16.5144 5.62301C16.6105 5.71907 16.6646 5.84925 16.665 5.98511V11.5256C16.795 11.815 16.7517 12.3553 16.7607 12.6706L17.2119 13.1252C17.933 13.8858 17.7143 14.9262 16.9419 15.5554H17.6904C17.8261 15.5545 17.9559 15.5001 18.0519 15.4042C18.1478 15.3082 18.2022 15.1784 18.2031 15.0427V4.44361C18.202 4.30829 18.1475 4.17887 18.0515 4.0835C17.9555 3.98814 17.8258 3.93453 17.6904 3.93433Z" fill="#222222"/>
<path d="M16.0054 17.9001L14.5904 17.9104L13.9375 18.553L14.446 19.9528C14.4576 19.9846 14.4783 20.0122 14.5055 20.0322C14.5328 20.0522 14.5653 20.0637 14.5991 20.0652C14.6328 20.0667 14.6663 20.0581 14.6952 20.0406C14.7241 20.0231 14.7472 19.9974 14.7614 19.9668L15.2363 18.9495L16.2496 19.4237C16.2803 19.438 16.3144 19.4429 16.3479 19.4378C16.3813 19.4327 16.4124 19.4178 16.4374 19.395C16.4623 19.3722 16.4799 19.3424 16.488 19.3096C16.496 19.2768 16.4942 19.2423 16.4826 19.2105L16.0054 17.9001Z" fill="#00A669"/>
<path d="M10.1096 17.9001L9.63237 19.2105C9.62081 19.2423 9.61893 19.2768 9.62698 19.3096C9.63503 19.3425 9.65265 19.3722 9.67759 19.395C9.70253 19.4178 9.73369 19.4327 9.76711 19.4378C9.80054 19.443 9.83472 19.438 9.86535 19.4237L10.8786 18.9495L11.3537 19.9671C11.368 19.9977 11.391 20.0234 11.4199 20.0409C11.4488 20.0584 11.4822 20.067 11.516 20.0655C11.5497 20.064 11.5823 20.0526 11.6095 20.0326C11.6367 20.0126 11.6574 19.985 11.669 19.9533L12.1775 18.5564L11.5212 17.9104L10.1096 17.9001Z" fill="#00A669"/>
<path d="M15.7396 13.0935L15.7319 12.0374C15.7309 11.9031 15.6771 11.7745 15.582 11.6794C15.487 11.5844 15.3584 11.5306 15.224 11.5296L14.1679 11.5219L13.416 10.7808C13.3203 10.6864 13.1913 10.6335 13.0569 10.6335C12.9225 10.6335 12.7935 10.6864 12.6978 10.7808L11.9459 11.5219L10.8898 11.5296C10.7554 11.5305 10.6268 11.5843 10.5318 11.6794C10.4367 11.7744 10.3829 11.903 10.3819 12.0374L10.3742 13.0935L9.6331 13.8454C9.53874 13.9411 9.48584 14.0701 9.48584 14.2045C9.48584 14.3389 9.53874 14.4679 9.6331 14.5637L10.3742 15.3156L10.3819 16.3717C10.3829 16.506 10.4367 16.6346 10.5317 16.7297C10.6268 16.8247 10.7554 16.8785 10.8897 16.8795L11.9458 16.8872L12.6978 17.6283C12.7935 17.7227 12.9225 17.7756 13.0569 17.7756C13.1913 17.7756 13.3203 17.7227 13.416 17.6283L14.1679 16.8872L15.224 16.8795C15.3583 16.8785 15.4869 16.8247 15.582 16.7297C15.677 16.6347 15.7308 16.5061 15.7318 16.3717L15.7396 15.3156L16.4807 14.5637C16.575 14.468 16.6279 14.339 16.6279 14.2046C16.6279 14.0702 16.575 13.9412 16.4807 13.8454L15.7396 13.0935ZM13.0569 15.5717C11.2498 15.516 11.2501 12.8928 13.0569 12.8374C14.864 12.8932 14.8636 15.5162 13.0569 15.5717Z" fill="#00A669"/>
</svg>
