<svg width="16" height="16" viewBox="0 0 16 16" fill="none" xmlns="http://www.w3.org/2000/svg">
<path d="M13.6667 2H2.33334C1.89147 2.00053 1.46786 2.17629 1.15541 2.48874C0.842965 2.80119 0.667202 3.2248 0.666672 3.66667V12.3333C0.667202 12.7752 0.842965 13.1988 1.15541 13.5113C1.46786 13.8237 1.89147 13.9995 2.33334 14H13.6667C14.1085 13.9995 14.5321 13.8237 14.8446 13.5113C15.157 13.1988 15.3328 12.7752 15.3333 12.3333V3.66667C15.3328 3.2248 15.157 2.80119 14.8446 2.48874C14.5321 2.17629 14.1085 2.00053 13.6667 2ZM14.6667 12.3333C14.6667 12.5985 14.5613 12.8529 14.3738 13.0404C14.1862 13.228 13.9319 13.3333 13.6667 13.3333H2.33334C2.06812 13.3333 1.81377 13.228 1.62623 13.0404C1.4387 12.8529 1.33334 12.5985 1.33334 12.3333V3.66667C1.33334 3.40147 1.4387 3.1471 1.62623 2.95956C1.81377 2.77202 2.06812 2.66667 2.33334 2.66667H13.6667C13.9319 2.66667 14.1862 2.77202 14.3738 2.95956C14.5613 3.1471 14.6667 3.40147 14.6667 3.66667V12.3333Z" fill="#24A9E1" stroke="#24A9E1"/>
<path d="M12.0269 9.02705L12.027 9.02702C12.1082 8.94579 12.2184 8.90011 12.3334 8.90011C12.4483 8.90011 12.5585 8.94579 12.6398 9.02703C12.7211 9.10832 12.7667 9.21853 12.7667 9.33344V10.6668C12.7667 10.8701 12.6859 11.0651 12.5422 11.2089L12.5422 11.2089C12.3984 11.3527 12.2034 11.4334 12 11.4334H10.6667C10.5518 11.4334 10.4416 11.3878 10.3603 11.3065C10.279 11.2253 10.2334 11.1151 10.2334 11.0001C10.2334 10.8852 10.279 10.775 10.3603 10.6937L10.3603 10.6937C10.4416 10.6125 10.5518 10.5668 10.6667 10.5668H11.2873L10.027 9.30649L10.0257 9.30525L10.0258 9.30524C9.94686 9.22353 9.90318 9.11408 9.90417 9.00047L12.0269 9.02705ZM12.0269 9.02705C11.9457 9.10832 11.9 9.2185 11.9 9.33344V9.95402M12.0269 9.02705L11.9 9.95402M11.9 9.95402L10.6397 8.69373L10.6398 8.69372L10.6385 8.6925C10.5568 8.61361 10.4473 8.56993 10.3337 8.57091L11.9 9.95402ZM10.0311 8.6978C10.1114 8.61748 10.22 8.57188 10.3337 8.57092L10.0311 8.6978ZM10.0311 8.6978C9.95073 8.77813 9.90513 8.8868 9.90417 9.00043L10.0311 8.6978Z" fill="#24A9E1" stroke="#24A9E1" stroke-width="0.2"/>
<path d="M10.0207 7.13017C10.0374 7.1711 10.0622 7.20834 10.0935 7.23964C10.1248 7.27094 10.162 7.29567 10.203 7.31244C10.2439 7.3292 10.2878 7.33764 10.3321 7.33727C10.3763 7.33687 10.4201 7.32767 10.4608 7.3102C10.5014 7.29274 10.5382 7.26734 10.569 7.2355M10.0207 7.13017L10.0229 6.87237L9.93107 6.83284C9.90829 6.88578 9.89638 6.94265 9.89587 7.00013L9.89586 7.00021C9.89539 7.05772 9.90634 7.11476 9.92809 7.16798L9.92812 7.16808C9.94992 7.22128 9.9821 7.26967 10.0228 7.31035C10.0635 7.35104 10.1118 7.3832 10.1651 7.40499C10.2183 7.42679 10.2754 7.43774 10.3329 7.43727L10.333 7.43727C10.3905 7.43675 10.4474 7.42479 10.5002 7.40209C10.5528 7.37949 10.6004 7.34669 10.6402 7.30565M10.0207 7.13017C10.0039 7.0892 9.99549 7.0453 9.99586 7.00104L10.0207 7.13017ZM10.569 7.2355L10.6397 7.30621L10.6402 7.30565M10.569 7.2355L10.6409 7.305C10.6407 7.30522 10.6404 7.30543 10.6402 7.30565M10.569 7.2355L11.9 5.9045V6.04593M10.6402 7.30565L11.9 6.04593M10.3602 4.69341C10.3602 4.69341 10.3602 4.69342 10.3602 4.69343C10.2789 4.7747 10.2333 4.88494 10.2333 4.99984C10.2333 5.11473 10.2789 5.22497 10.3602 5.30625L10.3602 4.69341ZM10.3602 4.69341C10.4415 4.61217 10.5517 4.5665 10.6666 4.5665H12C12.2033 4.5665 12.3983 4.64727 12.5421 4.79106L12.5421 4.79107C12.6858 4.93484 12.7666 5.12984 12.7666 5.33317V6.6665C12.7666 6.78143 12.721 6.89166 12.6397 6.97291L12.6397 6.97293C12.5584 7.05416 12.4482 7.09984 12.3333 7.09984C12.2183 7.09984 12.1081 7.05417 12.0269 6.97293L10.3602 4.69341ZM11.9 6.04593L12 5.94593L12.0269 6.97291C11.9456 6.89164 11.9 6.7814 11.9 6.6665V6.04593ZM10.0275 6.69286L10.0269 6.69346L10.0976 6.76417L10.0282 6.69219C10.028 6.69241 10.0277 6.69264 10.0275 6.69286ZM10.6666 5.33317H11.3872L10.4309 4.76414C10.3684 4.82664 10.3333 4.91144 10.3333 4.99984C10.3333 5.08824 10.3684 5.17304 10.4309 5.23554C10.4934 5.29804 10.5782 5.33317 10.6666 5.33317ZM10.3602 5.30627C10.4415 5.3875 10.5517 5.43317 10.6666 5.43317H11.2872L10.3602 5.30627Z" fill="#24A9E1" stroke="#24A9E1" stroke-width="0.2"/>
<path d="M4.71267 5.43317H5.33325C5.44818 5.43317 5.55841 5.3875 5.63966 5.30625C5.72091 5.225 5.76659 5.11476 5.76659 4.99984C5.76659 4.88491 5.72091 4.77468 5.63966 4.69343C5.55841 4.61218 5.44818 4.5665 5.33325 4.5665H3.99992C3.79659 4.5665 3.60158 4.64727 3.4578 4.79106C3.31403 4.93485 3.23325 5.12985 3.23325 5.33317V6.6665C3.23325 6.78142 3.2789 6.89166 3.36018 6.97292L3.36018 6.97292C3.44144 7.05416 3.55165 7.09984 3.66659 7.09984C3.78152 7.09984 3.89174 7.05416 3.97299 6.97292L3.97299 6.97292C4.05427 6.89166 4.09992 6.78142 4.09992 6.6665V6.04593L5.36021 7.30621L5.3602 7.30623L5.36144 7.30742C5.44317 7.38638 5.55263 7.43006 5.66626 7.42907C5.77988 7.42807 5.88856 7.38248 5.9689 7.30215C6.04923 7.22181 6.09482 7.11314 6.09581 6.99951C6.09681 6.88589 6.05313 6.77642 5.97417 6.69469L5.97418 6.69468L5.97296 6.69346L4.71267 5.43317Z" fill="#24A9E1" stroke="#24A9E1" stroke-width="0.2"/>
<path d="M5.36145 8.69249L5.36146 8.6925C5.44317 8.61361 5.55261 8.56993 5.66622 8.57091L5.36145 8.69249ZM5.36145 8.69249L5.36021 8.69373M5.36145 8.69249L5.36021 8.69373M5.36021 8.69373L4.09992 9.95402M5.36021 8.69373L4.09992 9.95402M4.09992 9.95402V9.33344C4.09992 9.21851 4.05426 9.10832 3.97301 9.02705L3.97299 9.02703C3.89174 8.94579 3.78152 8.90011 3.66659 8.90011C3.55165 8.90011 3.44144 8.94579 3.36018 9.02703L3.36016 9.02705C3.27891 9.10832 3.23325 9.21851 3.23325 9.33344V10.6668C3.23325 10.8701 3.31402 11.0651 3.4578 11.2089L3.45781 11.2089C3.60159 11.3527 3.79659 11.4334 3.99992 11.4334H5.33325C5.44815 11.4334 5.55839 11.3878 5.63966 11.3065L4.09992 9.95402ZM5.63968 11.3065C5.72092 11.2253 5.76659 11.1151 5.76659 11.0001C5.76659 10.8852 5.7209 10.775 5.63968 10.6937L5.63966 10.6937C5.55841 10.6125 5.44818 10.5668 5.33325 10.5668H4.71267L5.97296 9.30649L5.97297 9.3065L5.97417 9.30526C6.05313 9.22353 6.09681 9.11406 6.09581 9.00043C6.09482 8.88681 6.04923 8.77814 5.9689 8.6978C5.88857 8.61748 5.7799 8.57188 5.66626 8.57092L5.63968 11.3065Z" fill="#24A9E1" stroke="#24A9E1" stroke-width="0.2"/>
</svg>
