<svg width="16" height="16" viewBox="0 0 16 16" fill="none" xmlns="http://www.w3.org/2000/svg">
<path d="M3.0222 2.39999H12.9778C13.355 2.39999 13.7167 2.54983 13.9834 2.81655C14.2501 3.08327 14.4 3.44502 14.4 3.82222V12.3555C14.4 12.7327 14.2501 13.0945 13.9834 13.3612C13.7167 13.6279 13.355 13.7778 12.9778 13.7778H3.0222C2.645 13.7778 2.28325 13.6279 2.01653 13.3612C1.74982 13.0945 1.59998 12.7327 1.59998 12.3555V3.82222C1.59998 3.44502 1.74982 3.08327 2.01653 2.81655C2.28325 2.54983 2.645 2.39999 3.0222 2.39999M3.0222 5.24444V8.08888H7.28886V5.24444H3.0222ZM8.71109 5.24444V8.08888H12.9778V5.24444H8.71109ZM3.0222 9.51111V12.3555H7.28886V9.51111H3.0222ZM8.71109 9.51111V12.3555H12.9778V9.51111H8.71109Z" fill="currentColor"/>
</svg>
