<svg width="11" height="13" viewBox="0 0 11 13" fill="currentColor" xmlns="http://www.w3.org/2000/svg">
<path d="M5.25 0.5C3.52688 0.5 2.125 1.90188 2.125 3.625V4.875H1.5C0.810625 4.875 0.25 5.43563 0.25 6.125V11.75C0.25 12.4394 0.810625 13 1.5 13H9C9.68937 13 10.25 12.4394 10.25 11.75V6.125C10.25 5.43563 9.68937 4.875 9 4.875H8.375V3.625C8.375 1.90188 6.97312 0.5 5.25 0.5ZM3.375 3.625C3.375 2.59125 4.21625 1.75 5.25 1.75C6.28375 1.75 7.125 2.59125 7.125 3.625V4.875H3.375V3.625ZM9.00125 11.75H5.875V10.3263C6.24687 10.1094 6.5 9.71062 6.5 9.25C6.5 8.56063 5.93937 8 5.25 8C4.56063 8 4 8.56063 4 9.25C4 9.71 4.25313 10.1094 4.625 10.3263V11.75H1.5V6.125H9L9.00125 11.75Z" fill="currentColor"/>
</svg>
