<svg width="14" height="15" viewBox="0 0 14 15" fill="none" xmlns="http://www.w3.org/2000/svg">
<g clip-path="url(#clip0_647_471)">
<path d="M6.04681 0.460084L5.90682 0.406277L5.85299 0.546257L3.49176 6.68626H0.600098H0.450098V6.83626V7.86026V8.01026H0.600098H0.985029L1.98814 14.0289L2.00903 14.1543H2.1361H11.8641H11.9912L12.0121 14.0289L13.0152 8.01026H13.4001H13.5501V7.86026V6.83626V6.68626H13.4001H10.5084L8.14721 0.546257L8.09337 0.406277L7.95338 0.460084L7.47518 0.643892L7.33512 0.697724L7.38899 0.837761L9.63864 6.68575H4.36156L6.6112 0.837761L6.66507 0.697724L6.52502 0.643892L6.04681 0.460084ZM2.69683 13.3423L1.80833 8.01026H12.1919L11.3034 13.3423H2.69683Z" fill='currentColor' stroke="currentColor" stroke-width="0.3"/>
<path d="M5.35804 8.88428V8.73428H5.20805H4.69604H4.54604V8.88428V11.9563V12.1063H4.69604H5.20805H5.35804V11.9563V8.88428Z" fill='currentColor' stroke="currentColor" stroke-width="0.3"/>
<path d="M7.40614 8.88428V8.73428H7.25614H6.74414H6.59414V8.88428V11.9563V12.1063H6.74414H7.25614H7.40614V11.9563V8.88428Z" fill='currentColor' stroke="currentColor" stroke-width="0.3"/>
<path d="M9.45399 8.88428V8.73428H9.30399H8.79199H8.64199V8.88428V11.9563V12.1063H8.79199H9.30399H9.45399V11.9563V8.88428Z" fill='currentColor' stroke="currentColor" stroke-width="0.3"/>
</g>
<defs>
<clipPath id="clip0_647_471">
<rect width="12.8" height="13.4042" fill="white" transform="translate(0.600098 0.600098)"/>
</clipPath>
</defs>
</svg>
