<svg width="16" height="16" viewBox="0 0 16 16" fill="none" xmlns="http://www.w3.org/2000/svg">
<path d="M3.0209 2.87951L3.15594 3.16683H3.47341H13.3334C13.3776 3.16683 13.42 3.18439 13.4513 3.21565C13.4825 3.2469 13.5001 3.28929 13.5001 3.3335C13.5001 3.3503 13.4948 3.38653 13.47 3.44754L11.0967 7.73673C11.0966 7.73694 11.0964 7.73715 11.0963 7.73735C10.9539 7.99244 10.6771 8.16683 10.3667 8.16683H5.40008H5.105L4.96237 8.42515L4.36237 9.51181L4.33083 9.56893L4.31501 9.63223L4.29501 9.71223L4.28008 9.77194V9.8335C4.28008 10.0103 4.35032 10.1799 4.47535 10.3049C4.60037 10.4299 4.76994 10.5002 4.94675 10.5002H12.1667V10.8335H4.66675C4.20452 10.8335 3.83341 10.459 3.83341 10.0002C3.83341 9.85353 3.87094 9.7154 3.93261 9.59917L4.83724 7.9695L4.96199 7.74478L4.85184 7.51256L2.45184 2.45256L2.31632 2.16683H2.00008H1.16675V1.8335H2.52928L3.0209 2.87951ZM10.6667 7.8335H10.9608L11.1037 7.57647L12.9571 4.24313L13.3702 3.50016H12.5201H4.09341H3.30452L3.64125 4.21358L5.21458 7.54692L5.34985 7.8335H5.66675H10.6667ZM11.3334 12.5002C11.5544 12.5002 11.7664 12.588 11.9227 12.7442C12.0789 12.9005 12.1667 13.1125 12.1667 13.3335C12.1667 13.5545 12.0789 13.7665 11.9227 13.9228C11.7664 14.079 11.5544 14.1668 11.3334 14.1668C10.8712 14.1668 10.5001 13.7923 10.5001 13.3335C10.5001 12.8696 10.8696 12.5002 11.3334 12.5002ZM4.66675 12.5002C4.88776 12.5002 5.09972 12.588 5.256 12.7442C5.41228 12.9005 5.50008 13.1125 5.50008 13.3335C5.50008 13.5545 5.41228 13.7665 5.256 13.9228C5.09972 14.079 4.88776 14.1668 4.66675 14.1668C4.20452 14.1668 3.83341 13.7923 3.83341 13.3335C3.83341 12.8696 4.20289 12.5002 4.66675 12.5002Z" fill='currentColor' stroke="currentColor"/>
</svg>
