<svg width="16" height="16" viewBox="0 0 16 16" fill="none" xmlns="http://www.w3.org/2000/svg">
<path d="M14.9573 7.10291L14.9573 7.10292C15.1264 7.23238 15.249 7.41312 15.3067 7.618C15.3163 7.63952 15.3234 7.66203 15.328 7.6851C15.3281 7.68538 15.3281 7.68565 15.3282 7.68593L15.23 7.7051C15.243 7.76592 15.2497 7.82792 15.25 7.8901L14.9573 7.10291ZM14.9573 7.10291C14.7858 6.97172 14.5761 6.90046 14.3602 6.9001H14.36M14.9573 7.10291L14.36 6.9001M14.36 6.9001H14.278L9.29269 3.87603C9.34725 3.69483 9.3632 3.50387 9.33912 3.31554L9.33912 3.31553M14.36 6.9001L9.33912 3.31553M9.33912 3.31553C9.3115 3.0997 9.23215 2.89375 9.10778 2.71522M9.33912 3.31553L8.62486 2.29012M8.62486 2.29012L8.62486 2.29012C8.81772 2.39082 8.98342 2.53667 9.10778 2.71522M8.62486 2.29012C8.43197 2.18941 8.21762 2.13682 8.00002 2.13682M8.62486 2.29012L8.00002 2.13682M9.10778 2.71522L9.02585 2.77228L9.10778 2.71521C9.10778 2.71522 9.10778 2.71522 9.10778 2.71522ZM8.60054 3.25137L8.60053 3.25136C8.55136 3.1326 8.46804 3.03109 8.36114 2.95965C8.36114 2.95964 8.36114 2.95964 8.36113 2.95964L8.60054 3.25137ZM8.60054 3.25137C8.64974 3.37015 8.66261 3.50083 8.63752 3.62691L8.63752 3.62693M8.60054 3.25137L8.63752 3.62693M8.63752 3.62693C8.61245 3.75302 8.55055 3.86882 8.45964 3.95974M8.63752 3.62693L8.45964 3.95974M8.00002 2.13682C7.78243 2.13682 7.56808 2.18941 7.37519 2.29012M8.00002 2.13682L7.37519 2.29012M7.37519 2.29012C7.1823 2.39082 7.01663 2.53667 6.89227 2.71521L7.37519 2.29012ZM8.45964 3.95974C8.36875 4.05062 8.25292 4.11253 8.12683 4.13762M8.45964 3.95974L8.12683 4.13762M8.12683 4.13762C8.00075 4.16271 7.87007 4.14982 7.75128 4.10064L8.12683 4.13762ZM0.713188 7.55048C0.687248 7.58806 0.668874 7.6304 0.659171 7.67516L6.66093 3.31554C6.63686 3.50386 6.65278 3.69483 6.70735 3.87604L1.72206 6.9001L1.64002 6.9001L1.63948 6.9001C1.43465 6.90121 1.23518 6.96568 1.06844 7.08464C0.905754 7.20071 0.781993 7.36312 0.713188 7.55048ZM1.43497 13.0652L1.43495 13.0652C1.38058 13.0108 1.35002 12.937 1.35002 12.8601V7.8901C1.35002 7.81319 1.38058 7.73943 1.43495 7.68507L1.43497 7.68505C1.48936 7.63066 1.56312 7.6001 1.64002 7.6001H14.36V7.60014L14.363 7.60005C14.4291 7.59808 14.4939 7.61876 14.5467 7.65865C14.5977 7.69729 14.6346 7.75172 14.6514 7.81337C14.6536 7.83489 14.6534 7.85658 14.6508 7.87806L14.65 7.87797V7.8901V12.8601C14.65 12.937 14.6195 13.0108 14.5651 13.0652C14.5107 13.1196 14.4369 13.1501 14.36 13.1501H1.64002C1.5631 13.1501 1.48934 13.1196 1.43497 13.0652ZM3.07267 6.9001L7.0713 4.4744C7.18449 4.58403 7.31636 4.6729 7.46092 4.73671C7.63076 4.81167 7.81437 4.8504 8.00002 4.8504C8.18568 4.8504 8.36929 4.81167 8.53913 4.73671C8.68369 4.6729 8.81556 4.58403 8.92875 4.4744L12.9274 6.9001H3.07267Z" fill='currentColor' stroke="currentColor" stroke-width="0.2"/>
<path d="M4.99619 10.3033L4.99607 10.3034C5.07729 10.366 5.14337 10.4462 5.18939 10.5378L5.19025 10.5395L5.19023 10.5395C5.24151 10.6467 5.26632 10.7646 5.26256 10.8834C5.26519 11.039 5.22125 11.1918 5.13632 11.3222L5.13606 11.3226C5.04668 11.4584 4.91886 11.5645 4.76889 11.6273C4.59885 11.6996 4.41534 11.7347 4.23065 11.7302C4.01375 11.7382 3.79848 11.6894 3.60614 11.5887L3.59922 11.5851L3.59938 11.5849C3.48612 11.5138 3.39032 11.4182 3.31899 11.3052C3.24613 11.199 3.20565 11.0739 3.20255 10.9451L3.20254 10.9445C3.20179 10.9036 3.20939 10.8629 3.22481 10.8251L3.31742 10.8628M4.99619 10.3033L3.65252 11.5002C3.55142 11.4367 3.46597 11.3513 3.40252 11.2502C3.33995 11.1596 3.30517 11.0527 3.30252 10.9427C3.30202 10.9153 3.3071 10.8881 3.31742 10.8628M4.99619 10.3033L4.99088 10.2997C4.89858 10.2376 4.79826 10.1882 4.69268 10.1531M4.99619 10.3033L4.69268 10.1531M3.31742 10.8628L3.22477 10.8252C3.23995 10.7878 3.26243 10.7539 3.29079 10.7255C3.31977 10.6949 3.35496 10.6707 3.39407 10.6547M3.31742 10.8628C3.32772 10.8374 3.34307 10.8144 3.36252 10.7952C3.38195 10.7744 3.40562 10.758 3.43195 10.7473C3.45825 10.7365 3.4866 10.7315 3.51502 10.7327M3.39407 10.6547L3.43195 10.7473L3.39396 10.6548C3.394 10.6547 3.39403 10.6547 3.39407 10.6547ZM3.39407 10.6547C3.43261 10.6389 3.47402 10.6314 3.51558 10.6326M3.51558 10.6326C3.51437 10.6326 3.51316 10.6327 3.51195 10.6327L3.51502 10.7327M3.51558 10.6326C3.58751 10.6313 3.65725 10.6578 3.71025 10.7066L3.7135 10.7096L3.71343 10.7096C3.76375 10.7602 3.80234 10.8213 3.82648 10.8884C3.84818 10.947 3.87672 11.0028 3.91153 11.0547C3.94077 11.0933 3.97819 11.1251 4.02112 11.1476M3.51558 10.6326C3.51677 10.6327 3.51796 10.6327 3.51915 10.6327L3.51502 10.7327M3.51502 10.7327C3.5621 10.7312 3.60787 10.7483 3.64252 10.7802C3.68262 10.8205 3.71335 10.8691 3.73252 10.9227C3.7573 10.9897 3.79002 11.0535 3.83002 11.1127C3.86905 11.165 3.9195 11.2077 3.97752 11.2377C4.0559 11.2731 4.1416 11.2894 4.22752 11.2852C4.34997 11.2903 4.47085 11.2561 4.57252 11.1877M4.30002 10.1427C4.43335 10.1743 4.55335 10.2093 4.66002 10.2477C4.7574 10.2799 4.84992 10.3254 4.93502 10.3827L4.30002 10.1427ZM4.30002 10.1427C4.19252 10.1177 4.11752 10.0977 4.07002 10.0827M4.30002 10.1427L4.69268 10.1531M4.69268 10.1531C4.58216 10.1135 4.45889 10.0776 4.32314 10.0454L4.32314 10.0454L4.32268 10.0453C4.21611 10.0205 4.14401 10.0012 4.10014 9.9873L4.07002 10.0827M4.07002 10.0827C4.02332 10.0678 3.97812 10.0485 3.93502 10.0252C3.89302 10.0034 3.85632 9.97268 3.82752 9.93516M4.07002 10.0827L4.10042 9.98739C4.05968 9.97439 4.02025 9.9576 3.98266 9.93723L3.98267 9.93722L3.98101 9.93636C3.95241 9.92155 3.92738 9.90071 3.90763 9.87528M3.82752 9.93516L3.90826 9.87615C3.90805 9.87586 3.90784 9.87557 3.90763 9.87528M3.82752 9.93516C3.80212 9.90041 3.78892 9.85821 3.79002 9.81516L3.82752 9.93516ZM3.90763 9.87528C3.89585 9.85877 3.88966 9.83892 3.88997 9.81866M3.90763 9.87528L3.88997 9.81866M3.88997 9.81866C3.8912 9.79542 3.89785 9.77272 3.90942 9.75237C3.92109 9.73188 3.93747 9.7144 3.95722 9.70137C4.02779 9.65564 4.11098 9.63329 4.19499 9.63753L4.19494 9.63844L4.20844 9.6373C4.2861 9.63074 4.36369 9.65011 4.4291 9.69228C4.48196 9.73964 4.52452 9.79735 4.55414 9.86188L4.55414 9.86188L4.55439 9.8624C4.58223 9.92213 4.61973 9.9769 4.66542 10.0244L4.66506 10.0248L4.67264 10.0312C4.69982 10.0544 4.73138 10.072 4.76551 10.0829L3.88997 9.81866ZM4.86588 10.0952C4.90728 10.0952 4.94826 10.0865 4.98609 10.0694L4.86588 10.0952ZM4.86588 10.0952C4.83201 10.0975 4.79799 10.0933 4.76558 10.083L4.86588 10.0952ZM5.08738 9.99398C5.1425 9.93333 5.17288 9.85422 5.17253 9.77222L5.17251 9.77126C5.17137 9.68964 5.15132 9.60941 5.11391 9.53684L5.11392 9.53683L5.11305 9.5352C5.06849 9.45257 5.00875 9.37911 4.93692 9.31865L4.93689 9.31862C4.84908 9.24478 4.74747 9.18911 4.63792 9.15489C4.50705 9.11223 4.36993 9.09203 4.23232 9.09513C4.05921 9.09193 3.8871 9.12206 3.72537 9.18384C3.58251 9.23488 3.45882 9.32859 3.371 9.45225L3.37099 9.45225L3.37041 9.45309C3.28864 9.57074 3.24569 9.711 3.2475 9.8542C3.24297 9.99673 3.28419 10.137 3.36521 10.2544L3.36511 10.2545L3.36807 10.2584C3.44968 10.3652 3.55625 10.4502 3.67842 10.5061L3.67842 10.5061L3.67994 10.5068C3.82244 10.5691 3.97077 10.6171 4.12274 10.6501C4.24647 10.6799 4.34526 10.7065 4.4159 10.73L4.41589 10.73L4.4179 10.7307C4.47215 10.7475 4.52143 10.7775 4.56135 10.8179L4.56135 10.8179L4.56167 10.8182C4.5765 10.8331 4.58804 10.851 4.59556 10.8706L4.68897 10.835M5.08738 9.99398L3.72002 10.4152C3.85677 10.475 3.99915 10.521 4.14502 10.5527C4.27002 10.5827 4.37252 10.6102 4.44752 10.6352C4.5175 10.6569 4.58105 10.6955 4.63252 10.7477C4.65725 10.7725 4.67647 10.8022 4.68897 10.835M5.08738 9.99398C5.05954 10.0262 5.02499 10.052 4.98613 10.0694L5.08738 9.99398ZM4.68897 10.835C4.70145 10.8677 4.70692 10.9027 4.70502 10.9377C4.70477 10.9869 4.6926 11.0354 4.66952 11.079C4.64645 11.1225 4.61315 11.1598 4.57252 11.1877M4.68897 10.835L4.59553 10.8706C4.60303 10.8902 4.60631 10.9113 4.60517 10.9322L4.60505 10.9322L4.60503 10.9371C4.60486 10.9703 4.59667 11.0029 4.58117 11.0321L4.58116 11.0321C4.56572 11.0613 4.54347 11.0863 4.51631 11.1049M4.57252 11.1877L4.51668 11.1047C4.51656 11.1048 4.51643 11.1049 4.51631 11.1049M4.57252 11.1877L4.02112 11.1476M4.51631 11.1049C4.4324 11.1613 4.3327 11.1894 4.23169 11.1852L4.2317 11.1848L4.22261 11.1853C4.1534 11.1887 4.08437 11.1758 4.02112 11.1476M4.51631 11.1049L4.02112 11.1476" fill='currentColor' stroke="currentColor" stroke-width="0.2"/>
<path d="M7.77444 10.2551C7.75905 10.2187 7.73566 10.1863 7.70607 10.1603L7.70617 10.1601L7.70198 10.1568C7.63741 10.1058 7.55633 10.0804 7.47424 10.0853H6.57751V9.70782H7.54955C7.63406 9.71243 7.71739 9.68624 7.78409 9.63411L7.78455 9.6347L7.79324 9.626C7.84711 9.5721 7.87735 9.49902 7.87735 9.42282C7.87735 9.34665 7.84711 9.27354 7.79324 9.21963L7.79377 9.2191L7.78409 9.21153C7.71736 9.15938 7.63403 9.13324 7.54957 9.13782H6.30401C6.23326 9.1358 6.16289 9.14853 6.09734 9.17518L6.0973 9.17508L6.09297 9.17708C6.02956 9.20646 5.97865 9.25737 5.94927 9.32078L5.94918 9.32074L5.94753 9.32477C5.92051 9.39043 5.90774 9.46108 5.91001 9.53201V11.2987C5.90199 11.4035 5.93381 11.5075 5.99915 11.5899L6.00602 11.5986L6.01462 11.6056C6.09692 11.6721 6.20169 11.7043 6.30703 11.6953H7.59705C7.68156 11.6999 7.76489 11.6737 7.83159 11.6216L7.83172 11.6218L7.83661 11.6174C7.86651 11.5907 7.89011 11.5578 7.90581 11.521L7.90586 11.5209C7.92106 11.4851 7.92847 11.4465 7.92754 11.4076L7.77444 10.2551Z" fill='currentColor' stroke="currentColor" stroke-width="0.2"/>
<path d="M8.83992 9.11004C8.88569 9.10903 8.93121 9.11754 8.97357 9.13509C9.01687 9.15302 9.05583 9.17997 9.0879 9.21416L9.09291 9.2195L9.0927 9.21967C9.15745 9.29968 9.18948 9.40115 9.18247 9.50373V11.1026H10.0488C10.0947 11.1016 10.1404 11.1096 10.1832 11.1263L8.83992 9.11004ZM8.83992 9.11004C8.79452 9.1091 8.74949 9.11784 8.70781 9.1356L8.70774 9.13562C8.66507 9.15384 8.62686 9.1811 8.59575 9.21556L8.59552 9.21535L8.59071 9.22159C8.52879 9.30208 8.49832 9.40233 8.50497 9.50358V11.311C8.49698 11.4158 8.52876 11.5198 8.59411 11.6022L8.60098 11.6109L8.60959 11.6178C8.69188 11.6844 8.79665 11.7165 8.902 11.7076H10.0469C10.1336 11.7126 10.2193 11.6871 10.2893 11.6356L10.2897 11.6361L10.2979 11.6285C10.3275 11.6011 10.3511 11.5679 10.3672 11.531C10.3834 11.494 10.3917 11.4541 10.3917 11.4138C10.3917 11.3735 10.3834 11.3337 10.3672 11.2967C10.3512 11.2601 10.3279 11.2272 10.2987 11.1999C10.2655 11.168 10.2262 11.143 10.1833 11.1263L8.83992 9.11004ZM8.74699 9.2276C8.71764 9.24012 8.69137 9.25887 8.66997 9.28257H9.01497C8.99262 9.25875 8.96547 9.23997 8.93529 9.22747C8.90512 9.21497 8.87262 9.20905 8.83997 9.21007C8.80807 9.2091 8.77634 9.2151 8.74699 9.2276Z" fill='currentColor' stroke="currentColor" stroke-width="0.2"/>
<path d="M11.5104 9.21964L11.5103 9.21977C11.575 9.29977 11.607 9.40123 11.6 9.50379V11.1027H12.4555C12.5027 11.1009 12.5498 11.1084 12.5941 11.1248L12.5595 11.2186M11.5104 9.21964L12.6928 11.4917C12.7032 11.4676 12.7082 11.4414 12.7075 11.4152M11.5104 9.21964L11.5061 9.2149C11.4745 9.18062 11.4359 9.15349 11.3929 9.13542L11.3541 9.22763M11.5104 9.21964L11.1652 11.6966C11.1106 11.6799 11.0609 11.6499 11.0206 11.6096C10.9802 11.5692 10.9503 11.5195 10.9335 11.465L10.9335 11.4649C10.9178 11.4136 10.914 11.3594 10.9225 11.3065V9.50367C10.9158 9.40241 10.9463 9.30211 11.0083 9.22163L11.013 9.21551L11.0132 9.21571C11.0447 9.18076 11.0835 9.15318 11.127 9.13495C11.1691 9.11723 11.2147 9.10872 11.2606 9.11011C11.3059 9.10921 11.351 9.11782 11.3929 9.13546L11.3541 9.22763M12.5595 11.2186L12.594 11.1248C12.6391 11.1413 12.6804 11.1667 12.7156 11.1994L12.6475 11.2727M12.5595 11.2186C12.5921 11.2306 12.622 11.249 12.6475 11.2727M12.5595 11.2186C12.5269 11.2066 12.4922 11.2012 12.4575 11.2027L12.6929 11.3374M12.6475 11.2727L12.7155 11.1993C12.7454 11.2271 12.7692 11.2609 12.785 11.2986C12.785 11.2986 12.7851 11.2987 12.7851 11.2987L12.6929 11.3374M12.6475 11.2727C12.6671 11.2908 12.6825 11.3129 12.6929 11.3374M12.6929 11.3374C12.7032 11.362 12.7082 11.3885 12.7075 11.4152M12.7075 11.4152L12.8075 11.4178C12.8075 11.4169 12.8075 11.4161 12.8075 11.4152C12.8075 11.4144 12.8075 11.4135 12.8075 11.4127L12.7075 11.4152ZM11.3541 9.22763C11.3244 9.2151 11.2923 9.20915 11.26 9.21015L11.4325 9.28265C11.4106 9.2589 11.3839 9.24013 11.3541 9.22763Z" fill='currentColor' stroke="currentColor" stroke-width="0.2"/>
</svg>
