<svg width="24" height="22" viewBox="0 0 24 22" fill="none"
  xmlns="http://www.w3.org/2000/svg">
  <path d="M19 2.75002V19.25H13V16.0417H11V19.25H5V2.75002H19ZM15 6.41669H17V4.58335H15V6.41669ZM11 6.41669H13V4.58335H11V6.41669ZM7 6.41669H9V4.58335H7V6.41669ZM15 10.0834H17V8.25002H15V10.0834ZM11 10.0834H13V8.25002H11V10.0834ZM7 10.0834H9V8.25002H7V10.0834ZM15 13.75H17V11.9167H15V13.75ZM11 13.75H13V11.9167H11V13.75ZM7 13.75H9V11.9167H7V13.75ZM15 17.4167H17V15.5834H15V17.4167ZM7 17.4167H9V15.5834H7V17.4167ZM21 0.916687H3V21.0834H21V0.916687Z" fill="currentColor"/>
</svg>
