<svg width="16" height="16" viewBox="0 0 16 16" fill="none" xmlns="http://www.w3.org/2000/svg">
<g clip-path="url(#clip0_647_483)">
<path d="M11.26 10.1525L11.2997 10.1222C11.2515 10.0589 11.2117 9.95397 11.1914 9.802L11.1844 9.7496L11.1325 9.7595L10.8407 9.81507L10.7972 9.82337L10.8002 9.86759C10.8111 10.027 10.8512 10.1605 10.9225 10.273C10.9923 10.3832 11.0785 10.4667 11.1786 10.5168L11.1786 10.5168L11.1792 10.5171C11.2686 10.5602 11.3749 10.5937 11.5052 10.6131V10.8576V10.9086L11.5562 10.9076L11.7264 10.9041L11.7754 10.9031V10.8541V10.6087C11.9668 10.5898 12.1267 10.5164 12.2547 10.3816C12.3933 10.2392 12.4597 10.0595 12.4597 9.84682C12.4597 9.75119 12.4449 9.66153 12.4111 9.57504L12.4111 9.57504L12.4108 9.57433C12.3773 9.49251 12.3288 9.41752 12.2684 9.35698C12.2074 9.29234 12.1287 9.24037 12.0339 9.20017C11.988 9.17914 11.8992 9.15334 11.7754 9.12054V8.38995C11.832 8.40925 11.8774 8.43939 11.9102 8.47662L11.9102 8.47664L11.9113 8.47781C11.9572 8.52656 11.9894 8.60212 12.006 8.71154L12.0134 8.76096L12.0629 8.75349L12.3616 8.70833L12.4112 8.70084L12.4035 8.65129C12.3742 8.46059 12.2927 8.30296 12.1569 8.18977L12.1569 8.18977L12.1566 8.18955C12.0588 8.10923 11.9288 8.05979 11.7754 8.03806V7.94336V7.89336H11.7254H11.5552H11.5052V7.94336V8.03737C11.3296 8.05913 11.1877 8.11212 11.0879 8.2012C10.9306 8.33976 10.8522 8.52043 10.8522 8.73878C10.8522 8.86042 10.878 8.97284 10.9309 9.07128C10.9843 9.17412 11.061 9.25046 11.1627 9.30699C11.2768 9.37037 11.3899 9.41788 11.5017 9.44314V10.2637C11.4255 10.2444 11.3584 10.1987 11.2996 10.1221L11.26 10.1525ZM11.26 10.1525C11.2104 10.0875 11.1719 9.98933 11.1494 9.85808L11.5017 10.315C11.4086 10.2947 11.328 10.2412 11.26 10.1525ZM11.5517 10.2725V9.40222C11.4336 9.38138 11.3121 9.33275 11.187 9.26328C11.0932 9.21118 11.0238 9.14171 10.9751 9.04792C10.9265 8.95761 10.9022 8.85341 10.9022 8.73878C10.9022 8.53385 10.9751 8.36712 11.121 8.2386C11.2183 8.15177 11.3642 8.09967 11.5552 8.0823L11.5517 10.2725ZM11.3248 8.49445C11.3706 8.44385 11.4307 8.40769 11.5052 8.38715V9.05745C11.413 9.02189 11.3503 8.98118 11.3121 8.93583C11.2652 8.88016 11.2405 8.80873 11.2405 8.72142C11.2405 8.63211 11.2678 8.55751 11.3248 8.49445ZM11.9657 10.1439C11.9137 10.2033 11.8501 10.2427 11.7754 10.2623V9.51355C11.8898 9.55557 11.9621 9.60177 11.9987 9.64499C12.0397 9.70125 12.0644 9.77355 12.0644 9.86766C12.0644 9.97804 12.03 10.0703 11.9657 10.1439Z" fill='currentColor' stroke="currentColor" stroke-width="0.1"/>
<path d="M9.09453 9.40244V9.40257C9.09453 10.0868 9.37466 10.7072 9.82124 11.1538C10.2713 11.6039 10.8883 11.8805 11.5725 11.8805C12.2568 11.8805 12.8772 11.6004 13.3237 11.1538C13.7738 10.7037 14.0504 10.0868 14.0504 9.40257C14.0504 8.7183 13.7703 8.0979 13.3237 7.65132C12.8736 7.20122 12.2567 6.92461 11.5725 6.92461C10.204 6.92461 9.09808 8.03428 9.09453 9.40244ZM10.1768 10.7948L10.1766 10.7946C9.81764 10.4391 9.59745 9.94462 9.59745 9.39909C9.59745 8.30825 10.4816 7.42406 11.5725 7.42406C12.1179 7.42406 12.609 7.64415 12.9682 8.00338C13.3274 8.36257 13.5475 8.85713 13.5475 9.39909C13.5475 9.94448 13.3274 10.4356 12.9682 10.7948L12.968 10.795C12.6125 11.1539 12.118 11.3741 11.5725 11.3741C11.0271 11.3741 10.536 11.154 10.1768 10.7948Z" fill='currentColor' stroke="currentColor" stroke-width="0.1"/>
<path d="M6.83805 10.7884L6.80447 10.7513C6.68271 10.8617 6.61785 11.0037 6.61785 11.1809C6.61785 11.2794 6.64068 11.3672 6.6826 11.4472L6.6826 11.4472L6.68309 11.4481C6.726 11.5261 6.78838 11.5882 6.86882 11.6342L6.86879 11.6342L6.87065 11.6352C6.95949 11.6811 7.0453 11.7177 7.13192 11.7388V12.3619C7.08057 12.3441 7.03281 12.3101 6.99223 12.2583C6.9547 12.2091 6.92522 12.1288 6.90839 12.0109L6.90104 11.9595L6.84994 11.9688L6.62069 12.0105L6.57712 12.0184L6.57972 12.0626C6.58712 12.1883 6.62062 12.2938 6.67755 12.3849L6.67754 12.3849L6.67807 12.3857C6.73351 12.4707 6.79843 12.5367 6.88084 12.5798C6.95083 12.6165 7.03349 12.6405 7.13192 12.6556V12.8412V12.8887L7.17936 12.8911L7.31483 12.8981L7.36739 12.9008V12.8482V12.6652C7.51795 12.6488 7.6428 12.5865 7.74236 12.4835L7.74239 12.4835L7.74352 12.4822C7.84921 12.3652 7.90577 12.2212 7.90577 12.0527C7.90577 11.9749 7.89463 11.9025 7.86764 11.8331C7.84076 11.764 7.80214 11.7061 7.75219 11.6561C7.70172 11.6057 7.63716 11.5643 7.56368 11.5313L7.5637 11.5312L7.56173 11.5304C7.52812 11.517 7.46227 11.4959 7.36739 11.4718V10.9206C7.4028 10.935 7.43128 10.9553 7.4531 10.9807C7.48698 11.0202 7.51206 11.0766 7.525 11.1607L7.53256 11.2098L7.5817 11.2026L7.81789 11.1678L7.86716 11.1606L7.86012 11.1113C7.83775 10.9548 7.7734 10.8317 7.66188 10.7394L7.66189 10.7394L7.66081 10.7386C7.58149 10.6765 7.48254 10.6375 7.36391 10.6194V10.5557V10.5057H7.31391H7.17845H7.12845V10.5557V10.6196C6.99489 10.6397 6.88368 10.6793 6.80441 10.7514L6.83805 10.7884ZM6.83805 10.7884C6.91446 10.7189 7.02909 10.6807 7.17845 10.6633L7.18192 11.6984C7.08814 11.6811 6.99435 11.6429 6.89362 11.5908C6.82068 11.5491 6.7651 11.4935 6.7269 11.424C6.68869 11.3511 6.66785 11.2712 6.66785 11.1809C6.66785 11.0176 6.7269 10.8891 6.83805 10.7884ZM7.011 10.9882L7.01103 10.9882L7.01211 10.9869C7.04069 10.9522 7.08106 10.9265 7.13192 10.9103V11.4085C7.07125 11.3832 7.02853 11.3537 7.00088 11.3218C6.96517 11.2806 6.9471 11.2271 6.9471 11.16C6.9471 11.0919 6.96722 11.0378 7.011 10.9882ZM7.49895 12.273C7.46125 12.3151 7.41765 12.3437 7.36739 12.3594V11.8018C7.44718 11.8346 7.49652 11.8673 7.52257 11.8977C7.55439 11.9348 7.57305 11.9881 7.57305 12.0632C7.57305 12.1499 7.54869 12.2174 7.49895 12.273Z" fill='currentColor' stroke="currentColor" stroke-width="0.1"/>
<path d="M8.61016 10.2805C8.25025 9.9171 7.74785 9.69268 7.19574 9.69268C6.64351 9.69268 6.14472 9.91719 5.78151 10.2804C5.41808 10.6403 5.19365 11.1427 5.19365 11.6948C5.19365 12.2472 5.42182 12.7459 5.78125 13.1089C6.14117 13.4724 6.6436 13.6969 7.19574 13.6969C7.74797 13.6969 8.24676 13.4723 8.60996 13.1092C8.97341 12.7493 9.19783 12.2469 9.19783 11.6948C9.19783 11.1425 8.97332 10.6437 8.61016 10.2805ZM7.19574 10.1921C7.60919 10.1921 7.98565 10.3602 8.258 10.6325C8.5304 10.9049 8.69838 11.2779 8.69838 11.6948C8.69838 12.1082 8.53036 12.4847 8.258 12.757C7.98565 13.0294 7.60919 13.1974 7.19574 13.1974C6.7823 13.1974 6.40584 13.0294 6.13348 12.757C5.86113 12.4847 5.6931 12.1082 5.6931 11.6948C5.6931 11.2813 5.86113 10.9049 6.13348 10.6325C6.40584 10.3602 6.7823 10.1921 7.19574 10.1921Z" fill='currentColor' stroke="currentColor" stroke-width="0.1"/>
<path d="M5.13234 2.73617L5.13263 2.73613L5.14518 2.73433C6.93782 2.47675 8.26302 2.28634 9.60388 2.51883C10.9497 2.75219 12.3067 3.41039 14.17 4.84046L14.1708 4.84107L14.1707 4.84108C14.2118 4.87389 14.2427 4.91644 14.2566 4.96552C14.4043 5.36906 14.4674 5.6742 14.4463 5.89776C14.4357 6.01075 14.4034 6.10497 14.3479 6.18036C14.2923 6.25594 14.2157 6.30922 14.1223 6.34414L14.1222 6.34418C13.9369 6.41292 13.6908 6.3784 13.4001 6.29136C13.1071 6.20363 12.7562 6.05833 12.3558 5.89194C10.9056 5.29477 8.73104 4.40238 6.54226 4.94029L8.90651 6.12406L8.90653 6.12408L8.88415 6.16878C8.93972 6.19657 8.97793 6.24867 8.99182 6.30425L5.13234 2.73617ZM5.13234 2.73617C4.62257 2.81247 4.07113 2.88877 3.51264 2.96163C3.38427 2.97104 3.27659 3.07809 3.27659 3.21286V6.34144C3.27277 6.44056 3.33244 6.54067 3.43018 6.57669C4.97832 7.20424 6.10578 7.51836 6.92562 7.63207C7.74479 7.74568 8.26262 7.66002 8.58621 7.48077C8.91262 7.29997 9.03452 7.02789 9.06994 6.78891C9.10493 6.55285 9.05597 6.34839 9.04016 6.29146L5.13234 2.73617ZM5.64174 4.97063L5.64161 4.97028C5.59404 4.84055 5.65891 4.69695 5.78944 4.64909M5.64174 4.97063L5.80665 4.69603M5.64174 4.97063C5.66724 5.03864 5.71836 5.09044 5.78257 5.11677L8.57743 6.5142C8.58638 6.59749 8.58306 6.72008 8.52014 6.83747C8.45165 6.96525 8.30775 7.09572 8.00759 7.15931C7.70567 7.22327 7.24829 7.21874 6.56034 7.07526C5.87894 6.93315 4.97451 6.65541 3.77604 6.17662V3.43406L5.64174 4.97063ZM5.78944 4.64909L5.80665 4.69603M5.78944 4.64909C5.78941 4.6491 5.78939 4.64911 5.78937 4.64911L5.80665 4.69603M5.78944 4.64909C8.35601 3.70373 10.9163 4.75829 12.5497 5.43108L12.5503 5.43131L12.5313 5.47756M5.80665 4.69603C8.35271 3.75819 10.8953 4.80371 12.5313 5.47756M12.5313 5.47756L12.5503 5.43133M12.5313 5.47756L12.5503 5.43133M12.5503 5.43133L12.5577 5.43434C12.9146 5.58093 13.2229 5.70752 13.4656 5.78925C13.5877 5.83039 13.6914 5.85956 13.7753 5.87428C13.8606 5.88928 13.9178 5.88782 13.9516 5.8754M12.5503 5.43133L13.9516 5.8754M13.9516 5.8754C13.9515 5.87543 13.9515 5.87546 13.9514 5.87549L13.9514 5.8755L13.9693 5.92217L13.9519 5.87528C13.9518 5.87532 13.9517 5.87536 13.9516 5.8754ZM13.8092 5.19583C13.8131 5.19878 13.817 5.20173 13.8209 5.20469L13.8512 5.16495L13.8042 5.18212C13.8059 5.18671 13.8076 5.19128 13.8092 5.19583ZM5.20256 3.23455C5.20259 3.23454 5.20263 3.23453 5.20266 3.23453L5.19532 3.18507L5.20245 3.23456C5.20248 3.23456 5.20252 3.23455 5.20256 3.23455Z" fill='currentColor' stroke="currentColor" stroke-width="0.1"/>
<path d="M1.80156 7.07657H3.5244C3.66317 7.07657 3.77586 6.96387 3.77586 6.82511V2.60136C3.77586 2.4626 3.66317 2.3499 3.5244 2.3499H1.80156C1.66279 2.3499 1.5501 2.4626 1.5501 2.60136V6.82511C1.5501 6.96387 1.66279 7.07657 1.80156 7.07657ZM3.27641 2.85283V6.57712H2.04955V2.85283H3.27641Z" fill='currentColor' stroke="currentColor" stroke-width="0.1"/>
</g>
<defs>
<clipPath id="clip0_647_483">
<rect width="16" height="16" fill="white"/>
</clipPath>
</defs>
</svg>
