<svg width="20" height="20" viewBox="0 0 20 20" fill="none" xmlns="http://www.w3.org/2000/svg">
  <path d="M13.2 17.4001V15.8001C13.2 14.9514 12.8629 14.1375 12.2627 13.5374C11.6626 12.9372 10.8487 12.6001 10 12.6001H5.2C4.35131 12.6001 3.53737 12.9372 2.93726 13.5374C2.33714 14.1375 2 14.9514 2 15.8001V17.4001" stroke="currentColor" stroke-width="1.5" stroke-linecap="round" stroke-linejoin="round"/>
  <path d="M7.5999 9.4C9.36721 9.4 10.7999 7.96731 10.7999 6.2C10.7999 4.43269 9.36721 3 7.5999 3C5.83259 3 4.3999 4.43269 4.3999 6.2C4.3999 7.96731 5.83259 9.4 7.5999 9.4Z" stroke="currentColor" stroke-width="1.5" stroke-linecap="round" stroke-linejoin="round"/>
  <path d="M18.0001 17.4001V15.8001C17.9996 15.0911 17.7636 14.4023 17.3292 13.842C16.8948 13.2816 16.2866 12.8814 15.6001 12.7041" stroke="currentColor" stroke-width="1.5" stroke-linecap="round" stroke-linejoin="round"/>
  <path d="M13.2002 3.104C13.8885 3.28024 14.4986 3.68056 14.9343 4.24185C15.37 4.80314 15.6065 5.49347 15.6065 6.204C15.6065 6.91454 15.37 7.60487 14.9343 8.16615C14.4986 8.72744 13.8885 9.12776 13.2002 9.304" stroke="currentColor" stroke-width="1.5" stroke-linecap="round" stroke-linejoin="round"/>
</svg>
