<svg width="16" height="16" viewBox="0 0 16 16" fill="none" xmlns="http://www.w3.org/2000/svg">
<path d="M2.39998 2.3999C1.95198 2.3999 1.59998 2.7519 1.59998 3.1999C1.59998 3.6479 1.95198 3.9999 2.39998 3.9999C2.84798 3.9999 3.19998 3.6479 3.19998 3.1999C3.19998 2.7519 2.84798 2.3999 2.39998 2.3999ZM4.79998 2.3999V3.9999H14.4V2.3999H4.79998ZM2.39998 5.5999C1.95198 5.5999 1.59998 5.9519 1.59998 6.3999C1.59998 6.8479 1.95198 7.1999 2.39998 7.1999C2.84798 7.1999 3.19998 6.8479 3.19998 6.3999C3.19998 5.9519 2.84798 5.5999 2.39998 5.5999ZM4.79998 5.5999V7.1999H14.4V5.5999H4.79998ZM2.39998 8.7999C1.95198 8.7999 1.59998 9.1519 1.59998 9.5999C1.59998 10.0479 1.95198 10.3999 2.39998 10.3999C2.84798 10.3999 3.19998 10.0479 3.19998 9.5999C3.19998 9.1519 2.84798 8.7999 2.39998 8.7999ZM4.79998 8.7999V10.3999H14.4V8.7999H4.79998ZM2.39998 11.9999C1.95198 11.9999 1.59998 12.3519 1.59998 12.7999C1.59998 13.2479 1.95198 13.5999 2.39998 13.5999C2.84798 13.5999 3.19998 13.2479 3.19998 12.7999C3.19998 12.3519 2.84798 11.9999 2.39998 11.9999ZM4.79998 11.9999V13.5999H14.4V11.9999H4.79998Z" fill='currentColor'/>
</svg>
