<svg width="16" height="16" viewBox="0 0 16 16" fill="none" xmlns="http://www.w3.org/2000/svg">
<g clip-path="url(#clip0_778_2218)">
<path d="M11.2574 7.39329L11.2972 7.36299C11.249 7.29974 11.2092 7.19482 11.1889 7.0429L11.1819 6.9905L11.13 7.00039L10.8383 7.05595L10.7948 7.06425L10.7978 7.10847C10.8086 7.26786 10.8488 7.40129 10.92 7.5138C10.9898 7.62394 11.076 7.70745 11.176 7.75748L11.176 7.75749L11.1767 7.75781C11.2661 7.80085 11.3723 7.8344 11.5026 7.85375V8.09821V8.14821H11.5526H11.7227H11.7727V8.09821V7.85289C11.9641 7.83392 12.124 7.76059 12.2519 7.62587C12.3904 7.48348 12.4568 7.30382 12.4568 7.09118C12.4568 6.99557 12.4421 6.90593 12.4082 6.81946L12.4082 6.81946L12.408 6.81875C12.3745 6.73695 12.326 6.66199 12.2656 6.60146C12.2046 6.53684 12.1259 6.48488 12.0311 6.44469C11.9853 6.42367 11.8965 6.39787 11.7727 6.36508V5.63472C11.8292 5.65402 11.8746 5.68415 11.9075 5.72136L11.9075 5.72137L11.9086 5.72254C11.9544 5.77128 11.9866 5.84682 12.0032 5.95621L12.0107 6.00563L12.0601 5.99815L12.3587 5.95301L12.4083 5.94552L12.4007 5.89597C12.3713 5.70531 12.2899 5.54773 12.1541 5.43457L12.1541 5.43457L12.1538 5.43434C12.0561 5.35405 11.9261 5.30462 11.7727 5.2829V5.18823V5.13823H11.7227H11.5526H11.5026V5.18823V5.28221C11.327 5.30396 11.1851 5.35693 11.0853 5.44599C10.9282 5.58452 10.8497 5.76514 10.8497 5.98344C10.8497 6.10504 10.8755 6.21744 10.9285 6.31586C10.9819 6.41867 11.0585 6.49499 11.1602 6.5515C11.2743 6.61486 11.3873 6.66236 11.4991 6.68762V7.50441C11.4229 7.48512 11.3558 7.43949 11.2971 7.36287L11.2574 7.39329ZM11.2574 7.39329C11.2079 7.32829 11.1694 7.23019 11.1469 7.09898L11.4991 7.55578C11.406 7.53541 11.3254 7.48196 11.2574 7.39329ZM11.5491 7.51321V6.6467C11.431 6.62586 11.3095 6.57724 11.1845 6.50779C11.0907 6.45571 11.0213 6.38626 10.9727 6.2925C10.9241 6.20221 10.8997 6.09804 10.8997 5.98344C10.8997 5.77856 10.9727 5.61188 11.1185 5.4834C11.2157 5.39658 11.3616 5.3445 11.5526 5.32713L11.5491 7.51321ZM11.3223 5.73571C11.368 5.68513 11.4281 5.64898 11.5026 5.62845V6.29853C11.4104 6.26298 11.3477 6.22228 11.3095 6.17695C11.2627 6.1213 11.238 6.04989 11.238 5.96261C11.238 5.87333 11.2652 5.79875 11.3223 5.73571ZM11.9629 7.38814C11.9109 7.44755 11.8474 7.48696 11.7727 7.50655V6.75802C11.8871 6.80002 11.9593 6.8462 11.9959 6.88941C12.0369 6.94566 12.0617 7.01793 12.0617 7.11201C12.0617 7.22236 12.0273 7.31459 11.9629 7.38814Z" fill='currentColor' stroke="currentColor" stroke-width="0.1"/>
<path d="M9.09258 6.64665V6.64678C9.09258 7.33086 9.37263 7.9511 9.81909 8.39757C10.2691 8.84754 10.8858 9.12408 11.5699 9.12408C12.254 9.12408 12.8742 8.84403 13.3207 8.39757C13.7706 7.94759 14.0472 7.33081 14.0472 6.64678C14.0472 5.9627 13.7671 5.34246 13.3207 4.896C12.8707 4.44602 12.2539 4.16948 11.5699 4.16948C10.2053 4.16948 9.09612 5.27881 9.09258 6.64665ZM10.178 8.03863L10.1779 8.03847C9.81898 7.68298 9.59886 7.18868 9.59886 6.64331C9.59886 5.55277 10.4828 4.66882 11.5733 4.66882C12.1186 4.66882 12.6095 4.88885 12.9687 5.24798C13.3244 5.60368 13.5478 6.09813 13.5478 6.64331C13.5478 7.18855 13.3278 7.67951 12.9687 8.03863L12.9685 8.0388C12.613 8.39767 12.1187 8.61779 11.5733 8.61779C11.0281 8.61779 10.5371 8.39776 10.178 8.03863Z" fill='currentColor' stroke="currentColor" stroke-width="0.1"/>
<path d="M7.13055 5.02178C7.07922 5.00402 7.03148 4.97003 6.99092 4.91827C6.95341 4.86909 6.92393 4.78873 6.9071 4.67093L6.89976 4.61952L6.84866 4.62881L6.61947 4.67048L6.5759 4.6784L6.5785 4.72261C6.5859 4.84827 6.61939 4.95375 6.6763 5.04481L6.6763 5.04481L6.67682 5.04562C6.73225 5.13062 6.79715 5.19654 6.87955 5.2397C6.94952 5.27635 7.03215 5.3004 7.13055 5.31543V5.49752V5.50793V5.55793H7.18055H7.31598H7.36598V5.50793V5.32508C7.5165 5.30868 7.64132 5.24631 7.74085 5.14334L7.74087 5.14336L7.74201 5.14211C7.84767 5.02512 7.90422 4.88117 7.90422 4.71272C7.90422 4.6349 7.89308 4.56257 7.8661 4.4932C7.83922 4.42409 7.80061 4.36616 7.75067 4.31623C7.70021 4.26576 7.63567 4.22445 7.56221 4.19139L7.56223 4.19135L7.56026 4.19056C7.52666 4.17712 7.46083 4.15601 7.36598 4.1319V3.58096C7.40138 3.59529 7.42984 3.61556 7.45164 3.641C7.48551 3.68052 7.51059 3.73684 7.52353 3.82094L7.53108 3.87003L7.58022 3.86281L7.81635 3.82808L7.86562 3.82084L7.85858 3.77154C7.83622 3.61504 7.77188 3.49206 7.66038 3.39979L7.6604 3.39977L7.65932 3.39893C7.58002 3.33687 7.4811 3.29785 7.36251 3.27974V3.21606V3.16606H7.31251H7.17708H7.12708V3.21606V3.27993C6.99356 3.30008 6.88238 3.33968 6.80314 3.41173L6.83677 3.44872C6.72565 3.54943 6.66662 3.67791 6.66662 3.84112C6.66662 3.93141 6.68745 4.01127 6.72565 4.0842L7.13055 5.02178ZM7.13055 5.02178V4.39891V5.02178ZM7.00969 3.64501L7.00971 3.64503L7.01079 3.64372C7.03936 3.60903 7.07972 3.58332 7.13055 3.56718V4.06519C7.06991 4.03985 7.02721 4.01042 6.99956 3.97853C6.96387 3.93734 6.9458 3.88381 6.9458 3.81681C6.9458 3.74873 6.96592 3.69462 7.00969 3.64501ZM7.49749 4.92941C7.4598 4.97153 7.41622 5.00015 7.36598 5.01585V4.45841C7.44574 4.49123 7.49505 4.5239 7.52109 4.55428C7.5529 4.59139 7.57156 4.6446 7.57156 4.71967C7.57156 4.80636 7.54721 4.87383 7.49749 4.92941Z" fill='currentColor' stroke="currentColor" stroke-width="0.1"/>
<path d="M8.6117 2.93761C8.25188 2.57427 7.74961 2.3499 7.19766 2.3499C6.64223 2.3499 6.14348 2.57426 5.78371 2.93751C5.42042 3.29733 5.19609 3.79956 5.19609 4.35146C5.19609 4.90355 5.42055 5.40221 5.78361 5.76532C6.14343 6.12866 6.6457 6.35303 7.19766 6.35303C7.74974 6.35303 8.24839 6.12858 8.6115 5.76552C8.97485 5.4057 9.19922 4.90342 9.19922 4.35146C9.19922 3.79938 8.97477 3.30072 8.6117 2.93761ZM7.19766 2.84924C7.61093 2.84924 7.98724 3.01718 8.25952 3.2894C8.52839 3.56169 8.69646 3.93815 8.69988 4.35166C8.69982 4.76492 8.53185 5.14119 8.25962 5.41343C7.98734 5.68571 7.61099 5.85368 7.19766 5.85368C6.78432 5.85368 6.40797 5.68571 6.13569 5.41343C5.86341 5.14115 5.69543 4.7648 5.69543 4.35146C5.69543 3.93813 5.86341 3.56178 6.13569 3.2895C6.40797 3.01722 6.78432 2.84924 7.19766 2.84924Z" fill='currentColor' stroke="currentColor" stroke-width="0.1"/>
<path d="M13.9496 10.17L13.9489 10.1697C13.914 10.157 13.8562 10.1556 13.7705 10.1706C13.6866 10.1853 13.583 10.2145 13.4611 10.2556C13.2236 10.3358 12.9233 10.4591 12.575 10.6021L12.5475 10.6134C10.9179 11.286 8.35801 12.3407 5.78835 11.3955L13.9496 10.17ZM13.9496 10.17L13.9498 10.17C13.9512 10.1704 13.9579 10.1726 13.9628 10.1941C13.9683 10.2179 13.9689 10.2568 13.9604 10.3156C13.9437 10.4301 13.8946 10.6033 13.8059 10.8489C12.0373 12.1962 10.7525 12.8087 9.48154 13.0246C8.20594 13.2414 6.93979 13.0599 5.20162 12.8096C4.76865 12.7453 4.30285 12.6811 3.77551 12.6104V9.8649C4.9745 9.3871 5.87911 9.10986 6.5605 8.968C7.24844 8.82478 7.70558 8.82025 8.00719 8.88419C8.30703 8.94775 8.45053 9.07816 8.51874 9.20606C8.58147 9.32369 8.58458 9.44674 8.57555 9.53085L5.78148 10.9279C5.71729 10.9542 5.66618 11.006 5.64067 11.074L5.64055 11.0743M13.9496 10.17L5.64055 11.0743M5.64055 11.0743C5.593 11.204 5.65783 11.3476 5.7883 11.3954L5.64055 11.0743ZM3.43239 9.4652L3.4324 9.46521C4.98054 8.83761 6.10794 8.52349 6.9277 8.4098C7.74665 8.29621 8.26433 8.38185 8.58784 8.56105C8.91417 8.74181 9.03604 9.01382 9.07145 9.25273C9.10636 9.48828 9.05767 9.69236 9.04177 9.74973M3.43239 9.4652L8.88569 9.87269M3.43239 9.4652L3.43125 9.4657M3.43239 9.4652L3.43125 9.4657M9.04177 9.74973C9.04168 9.75006 9.04159 9.75037 9.04151 9.75069L8.99334 9.73727L9.04201 9.74872C9.04193 9.74906 9.04185 9.74939 9.04177 9.74973ZM9.04177 9.74973C9.02465 9.82133 8.98117 9.88281 8.90756 9.91766M8.90756 9.91766L8.90808 9.9174L8.88569 9.87269M8.90756 9.91766L6.54448 11.1009M8.90756 9.91766C8.90737 9.91775 8.90717 9.91785 8.90698 9.91794L8.88569 9.87269M8.88569 9.87269L6.54448 11.1009M6.54448 11.1009C8.7327 11.6386 10.9067 10.7464 12.3565 10.1494L12.3566 10.1494L12.3615 10.1474C12.7597 9.98362 13.1087 9.84007 13.4004 9.75274C13.691 9.66575 13.9369 9.63042 14.1219 9.69718L14.122 9.69722C14.2155 9.73123 14.2921 9.78383 14.3479 9.85904C14.4035 9.93403 14.4358 10.0281 14.4464 10.141C14.4674 10.3645 14.4044 10.6705 14.2567 11.0756C14.2428 11.1247 14.2119 11.1672 14.1709 11.2L14.1701 11.2007L14.17 11.2007C12.3073 12.6286 10.9507 13.2866 9.60525 13.5204C8.26202 13.7537 6.93452 13.563 5.13678 13.3047L5.13523 13.3044L6.54448 11.1009ZM3.43125 9.4657C3.33214 9.50879 3.27617 9.60386 3.27617 9.70254V12.8278M3.43125 9.4657L3.27617 12.8278M3.27617 12.8278C3.27617 12.9631 3.38436 13.0697 3.5157 13.079M3.27617 12.8278L3.5157 13.079M3.5157 13.079C4.01229 13.1438 4.50338 13.214 4.96492 13.2801C5.02215 13.2883 5.07892 13.2964 5.13519 13.3044L3.5157 13.079Z" fill='currentColor' stroke="currentColor" stroke-width="0.1"/>
<path d="M2.05291 13.1911V9.4679H3.27594V13.1911H2.05291ZM3.52735 8.96855H1.8015C1.66391 8.96855 1.5501 9.07663 1.5501 9.21649V13.4426C1.5501 13.5813 1.66277 13.694 1.8015 13.694H3.52735C3.66609 13.694 3.77876 13.5813 3.77876 13.4426V9.21996C3.77876 9.08123 3.66609 8.96855 3.52735 8.96855Z" fill='currentColor' stroke="currentColor" stroke-width="0.1"/>
</g>
<defs>
<clipPath id="clip0_778_2218">
<rect width="16" height="16" fill="white"/>
</clipPath>
</defs>
</svg>
