<svg width="16" height="16" viewBox="0 0 16 16" fill="none" xmlns="http://www.w3.org/2000/svg">
<path d="M8.66658 14L9.99992 13.3333L11.3333 14V9.33333H8.66658M11.3333 6V4.66667L9.99992 5.33333L8.66658 4.66667V6L7.33325 6.66667L8.66658 7.33333V8.66667L9.99992 8L11.3333 8.66667V7.33333L12.6666 6.66667M13.3333 2H2.66659C2.31296 2 1.97382 2.14048 1.72378 2.39052C1.47373 2.64057 1.33325 2.97971 1.33325 3.33333V10C1.33325 10.3536 1.47373 10.6928 1.72378 10.9428C1.97382 11.1929 2.31296 11.3333 2.66659 11.3333H7.33325V10H2.66659V3.33333H13.3333V10H12.6666V11.3333H13.3333C13.6869 11.3333 14.026 11.1929 14.2761 10.9428C14.5261 10.6928 14.6666 10.3536 14.6666 10V3.33333C14.6666 2.97971 14.5261 2.64057 14.2761 2.39052C14.026 2.14048 13.6869 2 13.3333 2ZM7.33325 5.33333H3.33325V4H7.33325M5.99992 7.33333H3.33325V6H5.99992M7.33325 9.33333H3.33325V8H7.33325V9.33333Z" fill='currentColor'/>
</svg>
