<svg class="position-absolute top-50 end-0 translate-middle js-btnSearch" style="cursor: pointer;padding: 6px;z-index: 1020;" width="30" height="30" viewBox="0 0 20 16" fill="currentColor" xmlns="http://www.w3.org/2000/svg">
  <path d="M3.56925 11L7.01685 14.2448C7.36789 14.5876 7.37969 15.1484 7.04338 15.5057C6.70707 15.8629 6.14658 15.885 5.78325 15.5552L0.683249 10.7552C0.502657 10.5852 0.400269 10.3481 0.400269 10.1C0.400269 9.85198 0.502657 9.61492 0.683249 9.44485L5.78325 4.64485C6.01611 4.41747 6.35358 4.33352 6.66583 4.4253C6.97809 4.51708 7.21646 4.77029 7.28924 5.08751C7.36202 5.40473 7.25786 5.73653 7.01685 5.95525L3.56925 9.20005H15.7C16.8598 9.20005 17.8 8.25985 17.8 7.10005V1.70005C17.8 1.20299 18.203 0.800049 18.7 0.800049C19.1971 0.800049 19.6 1.20299 19.6 1.70005V7.10005C19.6 9.25396 17.854 11 15.7 11H3.56925Z" fill="black" />
</svg>