<svg width="16" height="16" viewBox="0 0 16 16" fill="none" xmlns="http://www.w3.org/2000/svg">
<path d="M15.23 7.7051C15.2265 7.68692 15.2206 7.66927 15.2125 7.6526C15.1616 7.46545 15.0505 7.30022 14.8965 7.18232C14.7425 7.06445 14.554 7.00042 14.36 7.0001H14.25L9.17252 3.9201C9.24235 3.73112 9.26547 3.52807 9.23992 3.32822C9.21435 3.12837 9.14087 2.93767 9.02572 2.77237C8.91057 2.60705 8.75715 2.47201 8.57858 2.37876C8.39998 2.28551 8.2015 2.23682 8.00002 2.23682C7.79855 2.23682 7.60007 2.28551 7.42147 2.37876C7.24288 2.47201 7.08948 2.60705 6.97433 2.77237C6.85918 2.93767 6.78568 3.12837 6.76013 3.32822C6.73458 3.52807 6.75768 3.73112 6.82753 3.9201L1.75002 7.0001H1.64002C1.45583 7.0011 1.27646 7.05907 1.12652 7.16605C0.976575 7.27302 0.863403 7.42377 0.802523 7.5976C0.780253 7.62677 0.764678 7.66047 0.7569 7.69635C0.749123 7.7322 0.749335 7.76935 0.757523 7.8051V7.8901V12.8601C0.758165 13.0946 0.851113 13.3195 1.01626 13.4861C1.18141 13.6526 1.40549 13.7475 1.64002 13.7501H14.36C14.5958 13.7494 14.8218 13.6555 14.9886 13.4887C15.1554 13.3219 15.2494 13.0959 15.25 12.8601V7.8901C15.2497 7.82792 15.243 7.76592 15.23 7.7051ZM8.00002 2.7501C8.14835 2.7501 8.29338 2.7941 8.4167 2.8765C8.54003 2.95892 8.63618 3.07605 8.69293 3.2131C8.7497 3.35015 8.76455 3.50095 8.7356 3.64642C8.70668 3.79192 8.63525 3.92555 8.53035 4.03045C8.42547 4.13532 8.29182 4.20675 8.14635 4.2357C8.00085 4.26465 7.85005 4.24977 7.713 4.19302C7.57597 4.13625 7.45882 4.04012 7.37642 3.9168C7.294 3.79345 7.25002 3.64845 7.25002 3.5001C7.25002 3.3012 7.32905 3.11042 7.4697 2.96977C7.61035 2.82912 7.8011 2.7501 8.00002 2.7501ZM7.08752 4.3476C7.20325 4.4745 7.34417 4.57587 7.5013 4.64522C7.65842 4.71457 7.82827 4.7504 8.00002 4.7504C8.17177 4.7504 8.34162 4.71457 8.49875 4.64522C8.65587 4.57587 8.7968 4.4745 8.91252 4.3476L13.285 7.0001H2.71503L7.08752 4.3476ZM14.75 12.8601C14.75 12.9635 14.7089 13.0627 14.6358 13.1359C14.5626 13.209 14.4634 13.2501 14.36 13.2501H1.64002C1.53659 13.2501 1.43739 13.209 1.36425 13.1359C1.29111 13.0627 1.25002 12.9635 1.25002 12.8601V7.8901C1.25002 7.78667 1.29111 7.68747 1.36425 7.61435C1.43739 7.5412 1.53659 7.5001 1.64002 7.5001H14.36C14.4489 7.49745 14.5361 7.52525 14.607 7.5789C14.6779 7.63255 14.7284 7.70885 14.75 7.7951C14.7538 7.82665 14.7538 7.85855 14.75 7.8901V12.8601Z" fill="#7B7B7B"/>
<path d="M15.23 7.7051C15.2265 7.68692 15.2206 7.66927 15.2125 7.6526C15.1616 7.46545 15.0505 7.30022 14.8965 7.18232C14.7425 7.06445 14.554 7.00042 14.36 7.0001H14.25L9.17252 3.9201C9.24235 3.73112 9.26547 3.52807 9.23992 3.32822C9.21435 3.12837 9.14087 2.93767 9.02572 2.77237C8.91057 2.60705 8.75715 2.47201 8.57858 2.37876C8.39998 2.28551 8.2015 2.23682 8.00002 2.23682C7.79855 2.23682 7.60007 2.28551 7.42147 2.37876C7.24288 2.47201 7.08948 2.60705 6.97433 2.77237C6.85918 2.93767 6.78568 3.12837 6.76013 3.32822C6.73458 3.52807 6.75768 3.73112 6.82753 3.9201L1.75002 7.0001H1.64002C1.45583 7.0011 1.27646 7.05907 1.12652 7.16605C0.976575 7.27302 0.863403 7.42377 0.802523 7.5976C0.780253 7.62677 0.764678 7.66047 0.7569 7.69635C0.749123 7.7322 0.749335 7.76935 0.757523 7.8051V7.8901V12.8601C0.758165 13.0946 0.851113 13.3195 1.01626 13.4861C1.18141 13.6526 1.40549 13.7475 1.64002 13.7501H14.36C14.5958 13.7494 14.8218 13.6555 14.9886 13.4887C15.1554 13.3219 15.2494 13.0959 15.25 12.8601V7.8901C15.2497 7.82792 15.243 7.76592 15.23 7.7051ZM8.00002 2.7501C8.14835 2.7501 8.29338 2.7941 8.4167 2.8765C8.54003 2.95892 8.63618 3.07605 8.69293 3.2131C8.7497 3.35015 8.76455 3.50095 8.7356 3.64642C8.70668 3.79192 8.63525 3.92555 8.53035 4.03045C8.42547 4.13532 8.29182 4.20675 8.14635 4.2357C8.00085 4.26465 7.85005 4.24977 7.713 4.19302C7.57597 4.13625 7.45882 4.04012 7.37642 3.9168C7.294 3.79345 7.25002 3.64845 7.25002 3.5001C7.25002 3.3012 7.32905 3.11042 7.4697 2.96977C7.61035 2.82912 7.8011 2.7501 8.00002 2.7501ZM7.08752 4.3476C7.20325 4.4745 7.34417 4.57587 7.5013 4.64522C7.65842 4.71457 7.82827 4.7504 8.00002 4.7504C8.17177 4.7504 8.34162 4.71457 8.49875 4.64522C8.65587 4.57587 8.7968 4.4745 8.91252 4.3476L13.285 7.0001H2.71503L7.08752 4.3476ZM14.75 12.8601C14.75 12.9635 14.7089 13.0627 14.6358 13.1359C14.5626 13.209 14.4634 13.2501 14.36 13.2501H1.64002C1.53659 13.2501 1.43739 13.209 1.36425 13.1359C1.29111 13.0627 1.25002 12.9635 1.25002 12.8601V7.8901C1.25002 7.78667 1.29111 7.68747 1.36425 7.61435C1.43739 7.5412 1.53659 7.5001 1.64002 7.5001H14.36C14.4489 7.49745 14.5361 7.52525 14.607 7.5789C14.6779 7.63255 14.7284 7.70885 14.75 7.7951C14.7538 7.82665 14.7538 7.85855 14.75 7.8901V12.8601Z" stroke="currentColor"/>
<path d="M4.93502 10.3827C4.84992 10.3254 4.7574 10.2799 4.66002 10.2477C4.55335 10.2093 4.43335 10.1743 4.30002 10.1427C4.19252 10.1177 4.11752 10.0977 4.07002 10.0827C4.02332 10.0678 3.97812 10.0485 3.93502 10.0252C3.89302 10.0034 3.85632 9.97268 3.82752 9.93516C3.80212 9.90041 3.78892 9.85821 3.79002 9.81516C3.79182 9.77571 3.80297 9.73723 3.82252 9.70288C3.84207 9.66856 3.8695 9.63936 3.90252 9.61766C3.9908 9.56036 4.0949 9.53236 4.20002 9.53766C4.3024 9.52901 4.40467 9.55546 4.49002 9.61266C4.55577 9.67011 4.6086 9.74081 4.64502 9.82016C4.66822 9.86993 4.69947 9.91556 4.73752 9.95516C4.75467 9.96978 4.77455 9.98086 4.796 9.98771C4.81747 9.99458 4.84007 9.99711 4.86252 9.99516C4.89095 9.99568 4.91915 9.98991 4.9451 9.97823C4.97102 9.96658 4.99405 9.94931 5.01252 9.92766C5.05135 9.88541 5.07277 9.83006 5.07252 9.77266C5.0716 9.70651 5.05535 9.64148 5.02502 9.58266C4.98645 9.51111 4.93472 9.44751 4.87252 9.39516C4.7947 9.32971 4.70462 9.28041 4.60752 9.25016C4.48655 9.21066 4.35975 9.19206 4.23252 9.19516C4.07117 9.19191 3.91072 9.21993 3.76002 9.27766C3.63605 9.32171 3.5287 9.40291 3.45252 9.51016C3.38222 9.61131 3.3455 9.73201 3.34752 9.85516C3.34317 9.97711 3.37822 10.0972 3.44752 10.1977C3.51917 10.2914 3.61275 10.3661 3.72002 10.4152C3.85677 10.475 3.99915 10.521 4.14502 10.5527C4.27002 10.5827 4.37252 10.6102 4.44752 10.6352C4.5175 10.6569 4.58105 10.6955 4.63252 10.7477C4.65725 10.7725 4.67647 10.8022 4.68897 10.835C4.70145 10.8677 4.70692 10.9027 4.70502 10.9377C4.70477 10.9869 4.6926 11.0354 4.66952 11.079C4.64645 11.1225 4.61315 11.1598 4.57252 11.1877C4.47085 11.2561 4.34997 11.2903 4.22752 11.2852C4.1416 11.2894 4.0559 11.2731 3.97752 11.2377C3.9195 11.2077 3.86905 11.165 3.83002 11.1127C3.79002 11.0535 3.7573 10.9897 3.73252 10.9227C3.71335 10.8691 3.68262 10.8205 3.64252 10.7802C3.60787 10.7483 3.5621 10.7312 3.51502 10.7327C3.4866 10.7315 3.45825 10.7365 3.43195 10.7473C3.40562 10.758 3.38195 10.7744 3.36252 10.7952C3.34307 10.8144 3.32772 10.8374 3.31742 10.8628C3.3071 10.8881 3.30202 10.9153 3.30252 10.9427C3.30517 11.0527 3.33995 11.1596 3.40252 11.2502C3.46597 11.3513 3.55142 11.4367 3.65252 11.5002C3.83035 11.5933 4.02947 11.6381 4.23002 11.6302C4.40157 11.6348 4.5721 11.6024 4.73002 11.5352C4.86175 11.4801 4.97402 11.3869 5.05252 11.2677C5.127 11.1533 5.16532 11.0191 5.16252 10.8827C5.1662 10.7791 5.14475 10.6762 5.10002 10.5827C5.06075 10.5045 5.00435 10.4361 4.93502 10.3827Z" fill="currentColor"/>
<path d="M4.93502 10.3827C4.84992 10.3254 4.7574 10.2799 4.66002 10.2477C4.55335 10.2093 4.43335 10.1743 4.30002 10.1427C4.19252 10.1177 4.11752 10.0977 4.07002 10.0827C4.02332 10.0678 3.97812 10.0485 3.93502 10.0252C3.89302 10.0034 3.85632 9.97268 3.82752 9.93516C3.80212 9.90041 3.78892 9.85821 3.79002 9.81516C3.79182 9.77571 3.80297 9.73723 3.82252 9.70288C3.84207 9.66856 3.8695 9.63936 3.90252 9.61766C3.9908 9.56036 4.0949 9.53236 4.20002 9.53766C4.3024 9.52901 4.40467 9.55546 4.49002 9.61266C4.55577 9.67011 4.6086 9.74081 4.64502 9.82016C4.66822 9.86993 4.69947 9.91556 4.73752 9.95516C4.75467 9.96978 4.77455 9.98086 4.796 9.98771C4.81747 9.99458 4.84007 9.99711 4.86252 9.99516C4.89095 9.99568 4.91915 9.98991 4.9451 9.97823C4.97102 9.96658 4.99405 9.94931 5.01252 9.92766C5.05135 9.88541 5.07277 9.83006 5.07252 9.77266C5.0716 9.70651 5.05535 9.64148 5.02502 9.58266C4.98645 9.51111 4.93472 9.44751 4.87252 9.39516C4.7947 9.32971 4.70462 9.28041 4.60752 9.25016C4.48655 9.21066 4.35975 9.19206 4.23252 9.19516C4.07117 9.19191 3.91072 9.21993 3.76002 9.27766C3.63605 9.32171 3.5287 9.40291 3.45252 9.51016C3.38222 9.61131 3.3455 9.73201 3.34752 9.85516C3.34317 9.97711 3.37822 10.0972 3.44752 10.1977C3.51917 10.2914 3.61275 10.3661 3.72002 10.4152C3.85677 10.475 3.99915 10.521 4.14502 10.5527C4.27002 10.5827 4.37252 10.6102 4.44752 10.6352C4.5175 10.6569 4.58105 10.6955 4.63252 10.7477C4.65725 10.7725 4.67647 10.8022 4.68897 10.835C4.70145 10.8677 4.70692 10.9027 4.70502 10.9377C4.70477 10.9869 4.6926 11.0354 4.66952 11.079C4.64645 11.1225 4.61315 11.1598 4.57252 11.1877C4.47085 11.2561 4.34997 11.2903 4.22752 11.2852C4.1416 11.2894 4.0559 11.2731 3.97752 11.2377C3.9195 11.2077 3.86905 11.165 3.83002 11.1127C3.79002 11.0535 3.7573 10.9897 3.73252 10.9227C3.71335 10.8691 3.68262 10.8205 3.64252 10.7802C3.60787 10.7483 3.5621 10.7312 3.51502 10.7327C3.4866 10.7315 3.45825 10.7365 3.43195 10.7473C3.40562 10.758 3.38195 10.7744 3.36252 10.7952C3.34307 10.8144 3.32772 10.8374 3.31742 10.8628C3.3071 10.8881 3.30202 10.9153 3.30252 10.9427C3.30517 11.0527 3.33995 11.1596 3.40252 11.2502C3.46597 11.3513 3.55142 11.4367 3.65252 11.5002C3.83035 11.5933 4.02947 11.6381 4.23002 11.6302C4.40157 11.6348 4.5721 11.6024 4.73002 11.5352C4.86175 11.4801 4.97402 11.3869 5.05252 11.2677C5.127 11.1533 5.16532 11.0191 5.16252 10.8827C5.1662 10.7791 5.14475 10.6762 5.10002 10.5827C5.06075 10.5045 5.00435 10.4361 4.93502 10.3827Z" stroke="currentColor"/>
<path d="M7.59001 11.2178H6.47751V10.5453H7.4775C7.5369 10.5507 7.59608 10.5327 7.6425 10.4953C7.65988 10.4785 7.67353 10.4583 7.68255 10.4359C7.6916 10.4135 7.69586 10.3895 7.69501 10.3653C7.69621 10.3409 7.69188 10.3165 7.68236 10.294C7.67283 10.2715 7.65835 10.2515 7.64 10.2353C7.59398 10.199 7.536 10.1811 7.4775 10.1853H6.47751V9.60782H7.5525C7.6137 9.61177 7.6742 9.59307 7.7225 9.55532C7.75763 9.52017 7.77735 9.47252 7.77735 9.42282C7.77735 9.37314 7.75763 9.32547 7.7225 9.29032C7.6742 9.25257 7.6137 9.23389 7.5525 9.23782H6.3025C6.24518 9.23599 6.18813 9.24622 6.13501 9.26782C6.09308 9.28724 6.05943 9.32089 6.04001 9.36282C6.01818 9.41587 6.00796 9.47299 6.01001 9.53032V11.3028C6.00291 11.3837 6.02708 11.4642 6.07751 11.5278C6.14076 11.579 6.22155 11.6032 6.3025 11.5953H7.6C7.6612 11.5993 7.7217 11.5806 7.77 11.5428C7.78893 11.5259 7.80388 11.5051 7.81383 11.4817C7.82376 11.4584 7.82843 11.4332 7.8275 11.4078C7.82833 11.3817 7.82363 11.3558 7.81373 11.3317C7.80383 11.3075 7.78893 11.2858 7.77 11.2678C7.71873 11.2285 7.65421 11.2106 7.59001 11.2178Z" fill="#7B7B7B"/>
<path d="M7.59001 11.2178H6.47751V10.5453H7.4775C7.5369 10.5507 7.59608 10.5327 7.6425 10.4953C7.65988 10.4785 7.67353 10.4583 7.68255 10.4359C7.6916 10.4135 7.69586 10.3895 7.69501 10.3653C7.69621 10.3409 7.69188 10.3165 7.68236 10.294C7.67283 10.2715 7.65835 10.2515 7.64 10.2353C7.59398 10.199 7.536 10.1811 7.4775 10.1853H6.47751V9.60782H7.5525C7.6137 9.61177 7.6742 9.59307 7.7225 9.55532C7.75763 9.52017 7.77735 9.47252 7.77735 9.42282C7.77735 9.37314 7.75763 9.32547 7.7225 9.29032C7.6742 9.25257 7.6137 9.23389 7.5525 9.23782H6.3025C6.24518 9.23599 6.18813 9.24622 6.13501 9.26782C6.09308 9.28724 6.05943 9.32089 6.04001 9.36282C6.01818 9.41587 6.00796 9.47299 6.01001 9.53032V11.3028C6.00291 11.3837 6.02708 11.4642 6.07751 11.5278C6.14076 11.579 6.22155 11.6032 6.3025 11.5953H7.6C7.6612 11.5993 7.7217 11.5806 7.77 11.5428C7.78893 11.5259 7.80388 11.5051 7.81383 11.4817C7.82376 11.4584 7.82843 11.4332 7.8275 11.4078C7.82833 11.3817 7.82363 11.3558 7.81373 11.3317C7.80383 11.3075 7.78893 11.2858 7.77 11.2678C7.71873 11.2285 7.65421 11.2106 7.59001 11.2178Z" stroke="currentColor"/>
<path d="M10.05 11.2026H9.08247V9.50007C9.08864 9.4216 9.06449 9.34377 9.01497 9.28257C8.99262 9.25875 8.96547 9.23997 8.93529 9.22747C8.90512 9.21497 8.87262 9.20905 8.83997 9.21007C8.80807 9.2091 8.77634 9.2151 8.74699 9.2276C8.71764 9.24012 8.69137 9.25887 8.66997 9.28257C8.62224 9.3446 8.59909 9.42205 8.60497 9.50007V11.3151C8.59789 11.3959 8.62204 11.4765 8.67247 11.5401C8.73572 11.5912 8.81652 11.6155 8.89747 11.6076H10.05C10.1143 11.6119 10.1781 11.5933 10.23 11.5551C10.2494 11.537 10.265 11.5152 10.2756 11.4909C10.2862 11.4666 10.2917 11.4403 10.2917 11.4138C10.2917 11.3873 10.2862 11.361 10.2756 11.3367C10.265 11.3124 10.2494 11.2906 10.23 11.2726C10.2061 11.2495 10.1779 11.2315 10.147 11.2195C10.1161 11.2075 10.0831 11.2017 10.05 11.2026Z" fill="#7B7B7B"/>
<path d="M10.05 11.2026H9.08247V9.50007C9.08864 9.4216 9.06449 9.34377 9.01497 9.28257C8.99262 9.25875 8.96547 9.23997 8.93529 9.22747C8.90512 9.21497 8.87262 9.20905 8.83997 9.21007C8.80807 9.2091 8.77634 9.2151 8.74699 9.2276C8.71764 9.24012 8.69137 9.25887 8.66997 9.28257C8.62224 9.3446 8.59909 9.42205 8.60497 9.50007V11.3151C8.59789 11.3959 8.62204 11.4765 8.67247 11.5401C8.73572 11.5912 8.81652 11.6155 8.89747 11.6076H10.05C10.1143 11.6119 10.1781 11.5933 10.23 11.5551C10.2494 11.537 10.265 11.5152 10.2756 11.4909C10.2862 11.4666 10.2917 11.4403 10.2917 11.4138C10.2917 11.3873 10.2862 11.361 10.2756 11.3367C10.265 11.3124 10.2494 11.2906 10.23 11.2726C10.2061 11.2495 10.1779 11.2315 10.147 11.2195C10.1161 11.2075 10.0831 11.2017 10.05 11.2026Z" stroke="currentColor"/>
<path d="M12.4575 11.2027H11.5V9.50015C11.5062 9.42168 11.482 9.34385 11.4325 9.28265C11.4106 9.2589 11.3839 9.24013 11.3541 9.22763C11.3244 9.2151 11.2923 9.20915 11.26 9.21015C11.2277 9.2088 11.1955 9.21463 11.1657 9.22715C11.1358 9.23968 11.1092 9.25863 11.0875 9.28265C11.0398 9.34465 11.0166 9.42213 11.0225 9.50015V11.3152C11.0148 11.3552 11.0171 11.3966 11.0291 11.4356C11.0411 11.4746 11.0624 11.51 11.0913 11.5389C11.1201 11.5677 11.1556 11.5891 11.1946 11.6011C11.2336 11.6131 11.2749 11.6153 11.315 11.6077H12.4675C12.5319 11.6125 12.5958 11.5938 12.6475 11.5552C12.667 11.5375 12.6824 11.5159 12.6928 11.4917C12.7032 11.4676 12.7082 11.4414 12.7075 11.4152C12.7082 11.3885 12.7032 11.362 12.6929 11.3374C12.6825 11.3129 12.6671 11.2908 12.6475 11.2727C12.622 11.249 12.5921 11.2306 12.5595 11.2186C12.5269 11.2066 12.4922 11.2012 12.4575 11.2027Z" fill="#7B7B7B"/>
<path d="M12.4575 11.2027H11.5V9.50015C11.5062 9.42168 11.482 9.34385 11.4325 9.28265C11.4106 9.2589 11.3839 9.24013 11.3541 9.22763C11.3244 9.2151 11.2923 9.20915 11.26 9.21015C11.2277 9.2088 11.1955 9.21463 11.1657 9.22715C11.1358 9.23968 11.1092 9.25863 11.0875 9.28265C11.0398 9.34465 11.0166 9.42213 11.0225 9.50015V11.3152C11.0148 11.3552 11.0171 11.3966 11.0291 11.4356C11.0411 11.4746 11.0624 11.51 11.0913 11.5389C11.1201 11.5677 11.1556 11.5891 11.1946 11.6011C11.2336 11.6131 11.2749 11.6153 11.315 11.6077H12.4675C12.5319 11.6125 12.5958 11.5938 12.6475 11.5552C12.667 11.5375 12.6824 11.5159 12.6928 11.4917C12.7032 11.4676 12.7082 11.4414 12.7075 11.4152C12.7082 11.3885 12.7032 11.362 12.6929 11.3374C12.6825 11.3129 12.6671 11.2908 12.6475 11.2727C12.622 11.249 12.5921 11.2306 12.5595 11.2186C12.5269 11.2066 12.4922 11.2012 12.4575 11.2027Z" stroke="currentColor"/>
</svg>
