<svg width="16" height="16" viewBox="0 0 16 16" fill="none" xmlns="http://www.w3.org/2000/svg">
  <path d="M15.2431 13.4096C14.7533 13.3989 14.2782 13.5777 13.9171 13.9088L13.3927 14.3972C13.0836 14.7009 12.5882 14.7009 12.2791 14.3972C12.1123 14.2544 11.9563 14.0876 11.7883 13.9328C11.0169 13.2224 9.82961 13.2224 9.05828 13.9328C8.88068 14.0876 8.71268 14.2664 8.53508 14.4212C8.2256 14.7251 7.72976 14.7251 7.42028 14.4212C7.24268 14.2664 7.07468 14.0876 6.89708 13.9328C6.1271 13.2295 4.94786 13.2295 4.17788 13.9328C4.01108 14.0876 3.85508 14.2544 3.68828 14.3972C3.58965 14.4813 3.47607 14.546 3.35348 14.588C3.02394 14.6648 2.67923 14.5497 2.46188 14.2904C2.18737 14.0372 1.89325 13.8061 1.58228 13.5992C1.35475 13.4601 1.0901 13.3939 0.823879 13.4096H0.756679C0.457009 13.4477 0.232422 13.7027 0.232422 14.0048C0.232422 14.3069 0.457009 14.5619 0.756679 14.6C1.03731 14.6179 1.29797 14.7513 1.47668 14.9684L1.87748 15.278C2.6094 15.9328 3.7072 15.9632 4.47428 15.35C4.68548 15.1832 4.87508 14.9696 5.08628 14.7908C5.39576 14.4869 5.8916 14.4869 6.20108 14.7908L6.63548 15.2072C7.38814 15.9439 8.57992 15.9804 9.37628 15.2912C9.54428 15.1592 9.67748 14.9936 9.84428 14.8508C10.1441 14.5127 10.661 14.481 10.9999 14.78L11.5063 15.2672C12.0334 15.7555 12.7818 15.9236 13.4671 15.7076C13.8996 15.5793 14.2862 15.3294 14.5807 14.9876C14.7482 14.7836 14.9831 14.6461 15.2431 14.6C15.5427 14.5619 15.7673 14.3069 15.7673 14.0048C15.7673 13.7027 15.5427 13.4477 15.2431 13.4096ZM7.95668 1.45641C7.02069 1.99077 6.38869 2.93236 6.24875 4.00103C6.10881 5.06969 6.47704 6.14226 7.24388 6.89961C7.81562 7.40812 8.07269 8.18299 7.91828 8.93241C7.54268 10.004 6.61028 11 7.12868 12.2C7.47188 11.0348 8.76908 10.6508 9.36188 9.65121C10.5499 7.77321 9.17588 6.05121 8.12588 4.55721C7.57268 2.98761 9.58868 1.78401 8.86988 0.200012C8.69835 0.700908 8.38018 1.13866 7.95668 1.45641ZM11.4919 3.25641C10.6601 4.46492 10.9392 6.1156 12.1219 6.98361C12.572 7.24279 12.8191 7.7498 12.7459 8.26401C12.3631 9.15321 11.4403 9.95361 11.9227 11C12.3715 9.95601 13.1419 10.2272 14.1031 9.14481C14.9394 7.93761 14.6634 6.28411 13.4803 5.41401C13.0269 5.15721 12.7763 4.6497 12.8479 4.13361C13.2295 3.24441 14.1535 2.44641 13.6723 1.40001C13.2259 2.44401 12.4531 2.17401 11.4919 3.25641ZM1.89188 3.25641C1.06015 4.46492 1.33916 6.1156 2.52188 6.98361C2.972 7.24279 3.21909 7.7498 3.14588 8.26401C2.76308 9.15321 1.84028 9.95361 2.32268 11C2.77148 9.95601 3.54188 10.2272 4.50308 9.14481C5.33939 7.93761 5.06336 6.28411 3.88028 5.41401C3.42693 5.15721 3.17626 4.6497 3.24788 4.13361C3.62948 3.24441 4.55348 2.44641 4.07228 1.40001C3.62588 2.44401 2.85308 2.17401 1.89188 3.25641Z" fill="#C36626"/>
</svg>
