<svg width="12" height="16" viewBox="0 0 12 16" fill="none" xmlns="http://www.w3.org/2000/svg">
  <path d="M6 0.5C2.0025 3.9125 0 6.86 0 9.35C0 13.085 2.85 15.5 6 15.5C9.15 15.5 12 13.085 12 9.35C12 6.86 9.9975 3.9125 6 0.5ZM2.8725 9.5C3.15 9.5 3.375 9.695 3.4275 9.965C3.735 11.63 5.1375 12.2 6.1575 12.1175C6.48 12.1025 6.75 12.3575 6.75 12.68C6.75 12.98 6.51 13.2275 6.21 13.2425C4.6125 13.34 2.745 12.425 2.3175 10.1525C2.29112 9.98976 2.33747 9.82364 2.44428 9.69806C2.5511 9.57247 2.70763 9.50007 2.8725 9.5Z" fill="#4B95DB"/>
</svg>
