<svg width="18" height="18" viewBox="0 0 18 18" fill="none" xmlns="http://www.w3.org/2000/svg">
  <path d="M9 5.25C6.92893 5.25 5.25 6.92893 5.25 9C5.25 11.0711 6.92893 12.75 9 12.75C11.0711 12.75 12.75 11.0711 12.75 9C12.75 6.92893 11.0711 5.25 9 5.25Z" fill="#FFB500"/>
  <path fill-rule="evenodd" clip-rule="evenodd" d="M9 0.75C9.41421 0.75 9.75 1.08579 9.75 1.5V2.25C9.75 2.66421 9.41421 3 9 3C8.58579 3 8.25 2.66421 8.25 2.25V1.5C8.25 1.08579 8.58579 0.75 9 0.75ZM2.46975 2.46975C2.76262 2.17696 3.23738 2.17696 3.53025 2.46975L4.65525 3.59475C4.93948 3.88903 4.93541 4.35681 4.64611 4.64611C4.35681 4.93541 3.88903 4.93948 3.59475 4.65525L2.46975 3.53025C2.17696 3.23738 2.17696 2.76262 2.46975 2.46975ZM15.5302 2.46975C15.823 2.76262 15.823 3.23738 15.5302 3.53025L14.4052 4.65525C14.2169 4.85022 13.9381 4.92841 13.6759 4.85977C13.4136 4.79114 13.2089 4.58635 13.1402 4.32413C13.0716 4.06191 13.1498 3.78306 13.3448 3.59475L14.4698 2.46975C14.7626 2.17696 15.2374 2.17696 15.5302 2.46975ZM0.75 9C0.75 8.58579 1.08579 8.25 1.5 8.25H2.25C2.66421 8.25 3 8.58579 3 9C3 9.41421 2.66421 9.75 2.25 9.75H1.5C1.08579 9.75 0.75 9.41421 0.75 9ZM15 9C15 8.58579 15.3358 8.25 15.75 8.25H16.5C16.9142 8.25 17.25 8.58579 17.25 9C17.25 9.41421 16.9142 9.75 16.5 9.75H15.75C15.3358 9.75 15 9.41421 15 9ZM4.65525 13.3448C4.94804 13.6376 4.94804 14.1124 4.65525 14.4052L3.53025 15.5302C3.23597 15.8145 2.76819 15.8104 2.47889 15.5211C2.18959 15.2318 2.18552 14.764 2.46975 14.4698L3.59475 13.3448C3.88762 13.052 4.36238 13.052 4.65525 13.3448ZM13.3448 13.3448C13.6376 13.052 14.1124 13.052 14.4052 13.3448L15.5302 14.4698C15.8145 14.764 15.8104 15.2318 15.5211 15.5211C15.2318 15.8104 14.764 15.8145 14.4698 15.5302L13.3448 14.4052C13.052 14.1124 13.052 13.6376 13.3448 13.3448ZM9 15C9.41421 15 9.75 15.3358 9.75 15.75V16.5C9.75 16.9142 9.41421 17.25 9 17.25C8.58579 17.25 8.25 16.9142 8.25 16.5V15.75C8.25 15.3358 8.58579 15 9 15Z" fill="#FFB500"/>
</svg>
