<svg width="18" height="18" viewBox="0 0 18 18" fill="none" xmlns="http://www.w3.org/2000/svg">
  <path d="M9 4.5C6.9975 4.5 5.7525 5.4975 5.25 7.5C6 6.5025 6.8775 6.1275 7.875 6.375C8.445 6.5175 8.8575 6.93 9.3075 7.3875C10.0425 8.1375 10.875 9 12.75 9C14.7525 9 15.9975 8.0025 16.5 6C15.75 6.9975 14.8725 7.3725 13.875 7.125C13.305 6.9825 12.9 6.57 12.4425 6.1125C11.7075 5.3625 10.875 4.5 9 4.5ZM5.25 9C3.2475 9 2.0025 9.9975 1.5 12C2.25 11.0025 3.1275 10.6275 4.125 10.875C4.695 11.0175 5.1 11.43 5.5575 11.8875C6.2925 12.6375 7.125 13.5 9 13.5C11.0025 13.5 12.2475 12.5025 12.75 10.5C12 11.4975 11.1225 11.8725 10.125 11.625C9.555 11.4825 9.15 11.07 8.6925 10.6125C7.9575 9.8625 7.125 9 5.25 9Z" fill="#92D050"/>
</svg>
